<?xml version="1.0" standalone="no"?>
<!DOCTYPE svg PUBLIC "-//W3C//DTD SVG 20010904//EN"
 "http://www.w3.org/TR/2001/REC-SVG-20010904/DTD/svg10.dtd">
<svg version="1.0" xmlns="http://www.w3.org/2000/svg"
 width="3337.000000pt" height="3337.000000pt" viewBox="0 0 3337.000000 3337.000000"
 preserveAspectRatio="xMidYMid meet">

<g transform="translate(0.000000,3337.000000) scale(0.100000,-0.100000)"
fill="#000000" stroke="none">
<path d="M17913 30013 c9 -2 25 -2 35 0 9 3 1 5 -18 5 -19 0 -27 -2 -17 -5z"/>
<path d="M20025 30014 c-16 -2 -192 -13 -390 -24 -198 -11 -477 -27 -620 -35
-325 -18 -718 -42 -895 -55 -74 -5 -184 -12 -245 -15 -154 -8 -872 -54 -1815
-115 -162 -10 -374 -24 -470 -30 -96 -5 -276 -17 -400 -25 -268 -18 -899 -59
-1235 -80 -132 -8 -292 -20 -355 -25 -63 -5 -189 -14 -280 -20 -757 -46 -991
-71 -1220 -131 -265 -71 -511 -208 -679 -379 -270 -276 -426 -616 -485 -1060
-30 -217 -36 -578 -41 -2450 -3 -1031 -8 -2577 -12 -3435 -3 -858 -8 -2129 -9
-2825 -4 -2008 -12 -4729 -19 -5930 -11 -1906 -14 -5755 -5 -6220 9 -491 13
-526 81 -815 51 -219 149 -425 288 -605 95 -123 135 -164 233 -239 328 -250
598 -337 1108 -356 74 -3 167 -7 205 -10 132 -10 230 -15 400 -20 94 -3 508
-19 920 -35 413 -16 822 -32 910 -35 88 -3 228 -10 310 -15 176 -12 846 -47
1055 -55 80 -3 170 -8 200 -10 53 -4 155 -8 465 -20 77 -2 253 -7 390 -10 138
-3 288 -8 335 -10 47 -2 216 -7 375 -10 160 -3 313 -8 340 -10 28 -2 140 -7
250 -10 110 -3 254 -8 320 -10 66 -2 221 -7 345 -10 124 -3 266 -8 315 -11
149 -10 859 -12 877 -3 9 5 58 15 110 23 261 39 523 141 693 268 77 58 212
192 279 278 85 108 182 284 229 415 43 121 122 455 132 565 2 19 6 51 10 70 3
19 8 46 10 59 2 13 7 26 11 30 4 3 4 -8 1 -25 -4 -22 -2 -31 8 -31 8 0 14 3
13 6 0 3 1 8 2 11 9 23 11 133 15 680 2 344 6 675 10 735 11 216 14 255 21
266 4 7 3 9 -3 6 -7 -4 -9 10 -6 41 2 26 5 97 8 157 2 61 4 110 5 110 1 0 3
185 5 410 1 226 6 418 10 428 4 9 3 17 -3 17 -5 0 -6 16 -2 40 4 22 4 40 1 40
-4 0 -4 25 -1 56 3 30 2 57 -2 60 -5 3 -5 10 -2 16 4 6 6 31 6 57 -1 25 -1 73
-1 106 1 196 1 355 0 385 -2 28 -3 629 -2 705 4 226 11 1631 15 3025 3 982 8
2258 12 2835 3 578 6 1055 6 1060 0 6 -3 843 -7 1860 -5 1546 -8 3296 -5 3355
4 70 -10 1334 -15 1406 -18 238 -25 39 -25 -713 0 -1243 -4 -3140 -8 -3410 -2
-134 -7 -243 -11 -243 -4 0 -9 8 -11 18 -2 9 -4 483 -6 1052 -2 987 -8 1919
-19 3160 -12 1395 -15 1807 -16 2926 -2 1179 -2 1193 -25 1380 -33 269 -72
428 -147 598 -79 180 -174 323 -291 440 -239 239 -511 364 -893 410 -119 14
-555 21 -658 10z m520 -514 c259 -20 395 -55 509 -131 245 -163 424 -544 468
-993 13 -140 2 -19314 -12 -20541 -10 -857 -24 -1406 -40 -1557 -11 -110 -34
-203 -75 -299 -105 -250 -361 -490 -626 -587 l-74 -27 -515 -3 c-514 -4 -927
5 -1625 33 -203 8 -856 33 -1450 55 -594 22 -1375 51 -1735 65 -360 14 -1013
38 -1450 55 -768 29 -1381 53 -1640 65 -237 11 -345 40 -472 127 -219 148
-396 458 -480 838 l-23 105 2 4510 c2 6679 12 14963 19 15745 6 810 15 1045
45 1185 57 274 192 496 396 649 89 67 245 151 338 181 198 65 596 105 1064
108 225 2 262 0 276 -14 17 -17 28 -79 45 -256 13 -139 24 -170 99 -281 99
-147 194 -214 354 -246 89 -19 -15 -24 1787 84 2081 125 2649 160 2770 170
218 20 350 52 440 110 65 42 192 176 218 230 34 72 60 189 72 327 22 241 47
263 325 283 376 27 712 30 990 10z m1557 -11226 c0 -929 -2 -1752 -5 -1829 -3
-77 -6 -171 -6 -209 -1 -82 -10 -82 -18 0 -9 86 -8 2711 1 3254 9 547 7 493
18 482 6 -6 10 -711 10 -1698z m-15 -2271 c-2 -16 -4 -5 -4 22 0 28 2 40 4 28
2 -13 2 -35 0 -50z m-37 -9385 c0 -23 -3 -29 -11 -21 -6 6 -8 20 -4 32 9 30
15 26 15 -11z"/>
<path d="M14084 24480 c0 -85 2 -120 3 -77 2 42 2 112 0 155 -1 42 -3 7 -3
-78z"/>
<path d="M12952 24555 c0 -16 2 -22 5 -12 2 9 2 23 0 30 -3 6 -5 -1 -5 -18z"/>
<path d="M12412 24545 c0 -16 2 -22 5 -12 2 9 2 23 0 30 -3 6 -5 -1 -5 -18z"/>
<path d="M12412 24490 c0 -14 2 -19 5 -12 2 6 2 18 0 25 -3 6 -5 1 -5 -13z"/>
<path d="M12413 24425 c0 -22 2 -30 4 -17 2 12 2 30 0 40 -3 9 -5 -1 -4 -23z"/>
<path d="M13250 24310 c-6 -11 -8 -20 -6 -20 3 0 10 9 16 20 6 11 8 20 6 20
-3 0 -10 -9 -16 -20z"/>
<path d="M13204 24248 l-29 -33 33 29 c30 28 37 36 29 36 -2 0 -16 -15 -33
-32z"/>
<path d="M13361 24254 c0 -11 3 -14 6 -6 3 7 2 16 -1 19 -3 4 -6 -2 -5 -13z"/>
<path d="M11945 24180 c10 -11 20 -20 23 -20 3 0 -3 9 -13 20 -10 11 -20 20
-23 20 -3 0 3 -9 13 -20z"/>
<path d="M14770 20106 c0 -2 8 -10 18 -17 15 -13 16 -12 3 4 -13 16 -21 21
-21 13z"/>
<path d="M14605 20008 l-40 -43 43 40 c39 36 47 45 39 45 -2 0 -21 -19 -42
-42z"/>
<path d="M14539 19933 c-13 -16 -12 -17 4 -4 16 13 21 21 13 21 -2 0 -10 -8
-17 -17z"/>
<path d="M15920 19856 c0 -2 8 -10 18 -17 15 -13 16 -12 3 4 -13 16 -21 21
-21 13z"/>
<path d="M15660 19626 c0 -2 8 -10 18 -17 15 -13 16 -12 3 4 -13 16 -21 21
-21 13z"/>
<path d="M15722 19554 c10 -10 20 -16 22 -13 3 3 -5 11 -17 18 -21 13 -21 12
-5 -5z"/>
<path d="M14639 19513 l-34 -38 38 34 c34 33 42 41 34 41 -2 0 -19 -17 -38
-37z"/>
<path d="M14137 18815 c26 -52 49 -93 51 -91 4 5 -86 186 -93 186 -3 0 16 -43
42 -95z"/>
<path d="M14769 18763 c-13 -16 -12 -17 4 -4 16 13 21 21 13 21 -2 0 -10 -8
-17 -17z"/>
<path d="M14200 18685 c0 -5 5 -17 10 -25 5 -8 10 -10 10 -5 0 6 -5 17 -10 25
-5 8 -10 11 -10 5z"/>
<path d="M14226 18620 c3 -14 11 -32 16 -40 6 -10 7 -7 2 10 -3 14 -11 32 -16
40 -6 10 -7 7 -2 -10z"/>
<path d="M14619 18603 c-13 -16 -12 -17 4 -4 16 13 21 21 13 21 -2 0 -10 -8
-17 -17z"/>
<path d="M14180 18566 c0 -2 8 -10 18 -17 15 -13 16 -12 3 4 -13 16 -21 21
-21 13z"/>
<path d="M14240 18515 c13 -14 26 -25 28 -25 3 0 -5 11 -18 25 -13 14 -26 25
-28 25 -3 0 5 -11 18 -25z"/>
<path d="M14823 18454 l-28 -25 33 22 c17 13 32 24 32 26 0 8 -11 1 -37 -23z"/>
<path d="M15147 18458 c11 -13 23 -30 26 -38 5 -13 5 -13 6 0 0 16 -32 60 -45
60 -4 0 2 -10 13 -22z"/>
<path d="M13995 18378 c22 -27 41 -48 43 -48 7 0 -36 56 -59 75 -12 11 -5 -1
16 -27z"/>
<path d="M14765 18410 c-3 -6 1 -7 9 -4 18 7 21 14 7 14 -6 0 -13 -4 -16 -10z"/>
<path d="M15182 18375 c0 -16 2 -22 5 -12 2 9 2 23 0 30 -3 6 -5 -1 -5 -18z"/>
<path d="M14735 18376 c-6 -8 -20 -28 -33 -45 -34 -46 -22 -38 21 14 21 25 34
45 30 45 -4 0 -13 -6 -18 -14z"/>
<path d="M15191 18320 c0 -14 6 -50 14 -80 17 -71 18 -33 0 45 -7 33 -14 49
-14 35z"/>
<path d="M14070 18270 c6 -11 13 -20 16 -20 2 0 0 9 -6 20 -6 11 -13 20 -16
20 -2 0 0 -9 6 -20z"/>
<path d="M14593 18145 c-19 -42 -34 -77 -32 -80 2 -2 21 32 41 76 20 43 34 79
32 79 -3 0 -21 -34 -41 -75z"/>
<path d="M14451 18184 c0 -11 3 -14 6 -6 3 7 2 16 -1 19 -3 4 -6 -2 -5 -13z"/>
<path d="M14451 18144 c0 -11 3 -14 6 -6 3 7 2 16 -1 19 -3 4 -6 -2 -5 -13z"/>
<path d="M13745 18021 c50 -53 344 -295 351 -288 2 2 -56 50 -129 107 -72 58
-163 134 -202 170 -62 57 -64 58 -20 11z"/>
<path d="M11796 17865 c4 -82 10 -115 24 -135 33 -47 98 -186 131 -280 18 -51
34 -89 36 -83 6 18 -57 176 -118 292 -52 102 -59 122 -60 175 0 34 -4 79 -9
101 -7 28 -8 7 -4 -70z"/>
<path d="M13353 17844 c-33 -14 -33 -15 -31 -77 l2 -62 3 63 c3 41 8 62 17 62
7 0 21 7 32 15 23 18 19 18 -23 -1z"/>
<path d="M13702 17761 c37 -34 92 -100 122 -145 119 -180 276 -534 332 -745
12 -49 12 -55 -4 -68 -15 -13 -15 -13 6 -3 19 9 22 8 22 -9 0 -23 -16 -36 -25
-21 -4 6 -15 8 -24 5 -11 -3 -25 3 -37 16 -10 12 -104 94 -209 182 -294 248
-408 371 -485 524 -44 87 -53 92 -16 9 62 -139 193 -286 461 -514 235 -200
355 -319 355 -353 0 -29 -60 -367 -90 -504 -10 -49 -22 -105 -25 -123 -10 -48
-21 -31 -28 40 -12 122 -109 453 -165 564 -62 122 -174 247 -257 285 -48 22
-116 24 -154 5 -40 -21 -97 -88 -111 -131 -46 -139 57 -297 356 -546 160 -133
225 -211 279 -336 l35 -82 -15 -68 c-8 -37 -33 -142 -55 -233 -23 -91 -57
-230 -75 -308 -34 -144 -45 -177 -45 -131 0 48 -29 345 -40 413 -53 331 -131
494 -272 571 -43 23 -68 30 -135 33 l-83 5 -2 -49 c-7 -246 66 -499 222 -763
48 -83 182 -245 264 -320 32 -30 32 -32 2 -184 -14 -67 -29 -147 -34 -177 -8
-46 -11 -51 -17 -31 -19 57 -102 214 -163 306 -79 119 -217 261 -286 295 -103
49 -184 32 -225 -47 -45 -89 -36 -176 32 -312 40 -81 47 -89 161 -180 66 -53
235 -184 375 -292 l256 -196 16 118 c8 65 17 121 20 123 2 2 15 7 29 11 24 5
28 -1 93 -153 l67 -159 0 -98 c0 -84 2 -96 16 -91 9 3 216 6 460 6 l445 0 18
43 c10 23 17 45 14 49 -2 5 -61 52 -131 105 -70 54 -181 151 -246 218 -79 79
-99 96 -58 49 82 -95 191 -197 287 -269 44 -33 80 -65 80 -72 0 -6 4 -15 9
-20 5 -5 6 -3 2 5 -11 19 9 14 28 -7 16 -18 16 -21 1 -50 -15 -30 -35 -42 -35
-21 0 6 5 10 12 10 6 0 8 3 5 7 -4 3 -2 11 3 18 7 8 5 12 -5 12 -8 0 -12 -4
-9 -8 8 -14 -14 -19 -39 -10 -19 7 -28 6 -37 -4 -7 -8 -16 -12 -21 -10 -4 3
-12 -3 -18 -12 -14 -23 -14 -7 -1 18 7 13 7 19 0 19 -5 0 -10 -4 -10 -9 0 -5
-12 -12 -27 -16 l-28 -8 25 -7 c16 -5 0 -7 -46 -7 -64 0 -71 2 -66 19 2 10 -1
18 -7 18 -10 0 -15 -13 -12 -32 1 -6 -180 -10 -474 -10 -138 0 -132 0 -111 15
15 11 16 15 4 24 -9 8 -13 30 -11 65 1 46 -7 73 -62 198 -89 204 -89 185 -3
198 40 7 118 14 173 17 515 26 600 40 685 112 59 50 75 69 102 123 83 168 -67
323 -311 322 -116 -1 -220 -30 -356 -98 -135 -68 -209 -120 -318 -224 l-84
-80 9 53 c8 50 71 365 86 437 5 23 19 42 41 57 55 37 106 50 386 94 169 26
269 72 352 162 58 62 75 101 81 179 6 88 -21 148 -86 189 -160 101 -385 -5
-656 -311 -32 -36 -55 -56 -52 -46 4 11 16 60 27 110 12 50 29 125 39 166 28
120 77 342 84 383 9 48 31 58 182 87 267 50 323 63 392 92 96 40 169 107 208
190 25 55 29 75 29 153 0 77 -4 98 -26 140 -54 105 -170 144 -281 93 -102 -48
-237 -180 -381 -375 -34 -45 -62 -81 -64 -79 -2 1 2 27 7 57 19 99 48 302 61
429 9 87 18 129 29 140 9 9 48 26 86 37 154 47 145 43 89 37 -68 -8 -155 -39
-182 -67 -15 -15 -24 -38 -27 -72 -10 -96 -16 -127 -31 -142 -8 -8 -13 -19
-10 -24 4 -5 1 -9 -4 -9 -6 0 -11 5 -11 10 0 19 -21 10 -30 -12 -7 -19 -9 -19
-9 -5 -1 10 -5 15 -11 12 -5 -3 -10 -2 -10 4 0 13 17 23 23 14 2 -5 3 -3 1 3
-1 6 3 17 9 23 8 8 8 11 -1 11 -7 0 -12 5 -12 11 0 6 8 9 18 7 10 -2 16 -11
14 -23 -2 -16 -1 -17 7 -5 7 10 6 19 -5 31 -8 8 -11 19 -7 22 3 4 4 7 1 7 -2
0 -17 -14 -33 -32 -17 -19 -22 -29 -12 -25 23 9 21 -6 -3 -23 -18 -13 -18 -16
-5 -36 14 -22 14 -22 -15 -7 -31 15 -39 40 -18 61 9 9 9 12 -1 12 -8 0 -10 7
-6 19 16 51 23 156 12 168 -4 3 -8 -12 -8 -35 -1 -23 -2 -45 -3 -49 -2 -5 -6
-42 -10 -83 -7 -65 -12 -78 -37 -98 -15 -12 -30 -18 -33 -13 -4 5 3 12 14 16
27 8 25 26 -10 136 -153 470 -343 820 -505 932 -16 11 0 -8 37 -42z m-57 -883
c22 -11 68 -49 103 -85 l62 -66 -21 -18 c-12 -11 -26 -19 -30 -19 -5 0 -13 -9
-19 -20 -8 -16 -8 -20 4 -20 10 0 13 6 10 18 -5 15 -4 15 6 -1 6 -10 9 -26 5
-35 -5 -15 -4 -15 7 -2 7 8 20 20 28 28 13 11 12 12 -6 7 -14 -3 -21 -1 -21 9
0 9 4 13 8 10 4 -2 12 3 17 12 11 20 36 9 28 -13 -4 -9 -2 -11 6 -7 8 5 9 2 5
-10 -4 -9 -3 -15 2 -12 11 7 58 -71 65 -110 l6 -29 -11 28 c-7 18 -16 26 -25
23 -11 -4 -12 -1 -5 13 13 23 -6 46 -25 31 -8 -7 -21 -7 -40 0 -16 6 -25 8
-21 4 4 -4 -3 -14 -14 -22 -17 -12 -18 -16 -8 -23 8 -5 9 -9 3 -9 -19 0 -24
12 -13 32 9 16 7 20 -10 25 -11 3 -18 10 -14 16 4 6 1 7 -7 2 -10 -6 -10 -11
4 -20 14 -11 15 -14 1 -25 -12 -10 -15 -10 -15 4 0 9 -4 16 -10 16 -5 0 -9 3
-9 8 3 18 -2 22 -15 10 -8 -7 -12 -17 -9 -22 3 -4 -4 -5 -16 -1 -12 4 -21 2
-21 -4 0 -6 4 -11 9 -11 5 0 11 -6 14 -14 4 -10 0 -12 -13 -9 -11 3 -19 8 -18
12 3 27 -4 33 -15 11 -11 -21 -11 -27 2 -37 9 -6 19 -9 23 -7 4 2 9 0 13 -6 9
-14 -11 -13 -35 2 -16 11 -23 9 -40 -10 -23 -24 -40 -31 -20 -7 7 8 9 24 5 37
-7 23 -7 23 9 3 11 -15 15 -16 16 -5 0 23 -16 43 -29 36 -6 -4 -11 -2 -11 5 0
9 -3 9 -14 0 -11 -10 -20 -10 -38 0 -13 6 -20 8 -16 4 4 -5 3 -14 -2 -20 -8
-9 -6 -14 5 -19 8 -3 15 -10 15 -16 0 -6 -7 -6 -20 2 -13 9 -18 19 -14 35 4
14 2 23 -6 23 -6 0 -9 -4 -6 -8 2 -4 1 -14 -4 -22 -12 -19 18 -63 39 -55 13 5
13 4 4 -6 -10 -10 -10 -16 0 -28 7 -9 2 -8 -11 3 -12 11 -38 51 -57 89 -55
109 -46 205 25 276 55 54 122 60 205 19z m1231 -62 c3 -8 14 -16 25 -19 13 -4
19 -1 16 6 -3 7 -11 11 -18 9 -11 -3 -11 -1 -2 9 10 10 17 9 33 -9 21 -23 17
-31 -14 -26 -11 1 -28 -2 -38 -7 -13 -7 -20 -6 -24 5 -3 8 -12 13 -19 12 -21
-3 -31 -16 -13 -16 9 0 22 -8 29 -17 13 -16 12 -17 -3 -5 -15 12 -41 18 -88
22 -13 1 83 47 103 49 4 1 10 -5 13 -13z m105 -17 c19 -16 20 -18 4 -10 -34
17 -51 31 -39 31 7 0 22 -9 35 -21z m-793 -44 c-11 -11 -48 -13 -48 -3 0 5 7
8 15 5 8 -4 17 -2 21 4 3 6 9 8 12 5 3 -3 3 -8 0 -11z m567 5 c3 -5 1 -10 -4
-10 -6 0 -11 5 -11 10 0 6 2 10 4 10 3 0 8 -4 11 -10z m52 -15 c0 -8 -4 -12
-9 -9 -5 3 -6 10 -3 15 9 13 12 11 12 -6z m243 -16 c0 -6 -4 -7 -10 -4 -5 3
-10 11 -10 16 0 6 5 7 10 4 6 -3 10 -11 10 -16z m-289 -12 c-10 -9 -11 -8 -5
6 3 10 9 15 12 12 3 -3 0 -11 -7 -18z m107 5 c2 -7 -1 -12 -8 -12 -6 0 -8 5
-4 12 5 8 2 9 -10 5 -11 -4 -15 -3 -11 4 8 12 27 7 33 -9z m69 3 c0 -8 -4 -12
-9 -9 -5 3 -6 10 -3 15 9 13 12 11 12 -6z m-229 -7 c7 -7 12 -17 12 -22 0 -6
-5 -4 -10 4 -9 13 -11 13 -20 0 -5 -8 -8 -21 -5 -29 4 -9 0 -11 -11 -7 -12 5
-14 1 -8 -17 7 -25 5 -23 -19 15 -15 24 -15 27 0 40 15 11 16 11 10 -4 -3 -10
-3 -18 2 -18 5 0 12 11 15 25 7 28 16 31 34 13z m-368 -28 c5 0 7 8 4 18 -5
13 -4 14 4 3 9 -13 6 -41 -4 -41 -10 0 -42 39 -36 44 3 4 10 0 14 -9 5 -8 13
-15 18 -15z m730 -15 c0 -5 -5 -3 -10 5 -5 8 -10 20 -10 25 0 6 5 3 10 -5 5
-8 10 -19 10 -25z m-825 15 c3 -5 1 -10 -4 -10 -6 0 -11 5 -11 10 0 6 2 10 4
10 3 0 8 -4 11 -10z m68 -14 c4 -10 1 -13 -8 -9 -8 3 -12 9 -9 14 7 12 11 11
17 -5z m498 -3 c13 -17 13 -17 -6 -3 -11 8 -22 16 -24 17 -2 2 0 3 6 3 6 0 17
-8 24 -17z m76 -15 c-3 -8 -6 -5 -6 6 -1 11 2 17 5 13 3 -3 4 -12 1 -19z
m-604 -2 c16 -13 16 -14 -4 -19 -11 -3 -18 -3 -15 0 3 3 -2 12 -12 19 -14 11
-14 13 -2 13 8 0 23 -6 33 -13z m794 -18 c-3 -8 -6 -5 -6 6 -1 11 2 17 5 13 3
-3 4 -12 1 -19z m-713 0 c-3 -4 -14 -8 -25 -8 -11 0 -17 -4 -14 -10 3 -6 -1
-7 -10 -4 -14 6 -14 7 0 18 18 13 56 16 49 4z m280 3 c3 -5 -1 -12 -10 -15 -8
-3 -13 -2 -9 3 3 5 -1 12 -7 14 -8 4 -7 6 4 6 9 1 19 -3 22 -8z m93 -5 c0 -8
-6 -12 -15 -9 -11 5 -11 7 0 14 7 5 13 9 14 9 0 0 1 -6 1 -14z m123 -8 c0 -6
-6 -5 -15 2 -8 7 -15 14 -15 16 0 2 7 1 15 -2 8 -4 15 -11 15 -16z m-613 6
c-3 -3 -12 -4 -19 -1 -8 3 -5 6 6 6 11 1 17 -2 13 -5z m358 -12 c-3 -3 -11 0
-18 7 -9 10 -8 11 6 5 10 -3 15 -9 12 -12z m-1065 -53 c0 -6 -4 -8 -9 -4 -5 3
-12 1 -16 -5 -3 -5 1 -10 10 -10 23 0 13 -24 -11 -27 -18 -3 -18 -2 1 6 17 8
18 10 3 10 -21 1 -22 5 -6 30 12 20 28 19 28 0z m258 -4 c-3 -3 -9 2 -12 12
-6 14 -5 15 5 6 7 -7 10 -15 7 -18z m-94 7 c2 -4 -4 -8 -15 -8 -10 0 -19 4
-19 8 0 4 6 8 14 8 8 0 17 -4 20 -8z m21 -44 c6 -4 2 -8 -7 -8 -10 0 -18 7
-18 17 0 9 3 12 8 7 4 -5 12 -12 17 -16z m35 12 c0 -5 -5 -10 -11 -10 -5 0 -7
5 -4 10 3 6 8 10 11 10 2 0 4 -4 4 -10z m-235 -68 c-3 -3 -11 0 -18 7 -9 10
-8 11 6 5 10 -3 15 -9 12 -12z m1441 -2527 c-4 -12 0 -14 19 -9 14 3 25 2 25
-3 0 -4 -15 -8 -34 -9 -30 0 -33 2 -23 18 14 22 21 24 13 3z"/>
<path d="M13677 16821 c-3 -13 -1 -18 9 -14 7 2 10 11 7 19 -7 19 -10 18 -16
-5z"/>
<path d="M13628 16744 c10 -7 19 -9 23 -3 6 10 29 9 39 -1 13 -13 51 -30 45
-21 -3 6 0 11 8 11 7 0 14 6 14 14 0 11 -4 12 -18 3 -13 -8 -24 -8 -41 1 -13
6 -38 11 -55 10 -29 -1 -31 -2 -15 -14z"/>
<path d="M13420 16716 c0 -2 8 -10 18 -17 15 -13 16 -12 3 4 -13 16 -21 21
-21 13z"/>
<path d="M13495 16711 c3 -5 -1 -12 -7 -14 -10 -4 -10 -6 0 -6 8 -1 10 -6 6
-13 -5 -9 -2 -9 9 1 21 17 22 27 1 35 -8 3 -13 2 -9 -3z"/>
<path d="M13600 16706 c0 -2 7 -6 15 -10 8 -3 15 -1 15 4 0 6 -7 10 -15 10 -8
0 -15 -2 -15 -4z"/>
<path d="M13396 16685 c-3 -8 0 -17 6 -21 6 -4 8 -3 4 4 -3 6 2 12 11 14 16 3
17 4 1 10 -10 4 -18 1 -22 -7z"/>
<path d="M13637 16683 c-4 -3 -7 -11 -7 -17 0 -6 5 -5 12 2 6 6 9 14 7 17 -3
3 -9 2 -12 -2z"/>
<path d="M13545 16669 c-4 -6 -5 -12 -2 -15 2 -3 7 2 10 11 7 17 1 20 -8 4z"/>
<path d="M13595 16670 c-3 -5 -2 -10 4 -10 5 0 13 5 16 10 3 6 2 10 -4 10 -5
0 -13 -4 -16 -10z"/>
<path d="M13703 16658 c-1 -10 0 -18 2 -18 2 0 9 8 14 18 7 14 6 19 -3 19 -6
0 -13 -9 -13 -19z"/>
<path d="M13511 16637 c-6 -6 -11 -16 -11 -21 0 -6 5 -3 11 6 5 10 16 15 24
12 8 -4 15 -4 15 -1 0 11 -28 15 -39 4z"/>
<path d="M13820 16625 c0 -8 2 -15 4 -15 2 0 6 7 10 15 3 8 1 15 -4 15 -6 0
-10 -7 -10 -15z"/>
<path d="M13410 16615 c0 -5 5 -17 10 -25 5 -8 10 -10 10 -5 0 6 -5 17 -10 25
-5 8 -10 11 -10 5z"/>
<path d="M14856 16795 c4 -8 10 -12 15 -9 11 6 2 24 -11 24 -5 0 -7 -7 -4 -15z"/>
<path d="M14702 17681 c-100 -53 -194 -106 -210 -119 -32 -27 -15 -20 53 24
28 17 113 63 190 102 142 72 178 93 160 91 -5 -1 -92 -45 -193 -98z"/>
<path d="M12064 17712 c-37 -64 -54 -139 -53 -236 0 -50 4 -100 8 -110 4 -11
7 37 7 105 0 127 15 200 51 241 8 9 13 21 12 27 -2 6 -14 -6 -25 -27z"/>
<path d="M14261 17714 c0 -11 3 -14 6 -6 3 7 2 16 -1 19 -3 4 -6 -2 -5 -13z"/>
<path d="M13332 17675 c0 -16 2 -22 5 -12 2 9 2 23 0 30 -3 6 -5 -1 -5 -18z"/>
<path d="M11805 17635 c8 -19 22 -51 30 -70 8 -19 18 -35 20 -35 3 0 -2 16
-10 35 -8 19 -22 51 -30 70 -8 19 -18 35 -20 35 -3 0 2 -16 10 -35z"/>
<path d="M13340 17624 c0 -10 5 -26 10 -34 8 -11 9 -7 4 15 -8 37 -14 45 -14
19z"/>
<path d="M15350 17596 c0 -2 8 -10 18 -17 15 -13 16 -12 3 4 -13 16 -21 21
-21 13z"/>
<path d="M14751 17493 c-47 -49 -114 -128 -147 -178 -76 -112 -166 -265 -156
-265 4 0 18 19 31 43 97 171 190 300 293 405 45 45 78 82 73 82 -4 0 -47 -39
-94 -87z"/>
<path d="M11800 17483 l5 -78 3 63 c2 45 6 61 15 56 7 -4 3 2 -7 14 -11 12
-20 22 -20 22 -1 0 1 -35 4 -77z"/>
<path d="M15402 17465 c0 -16 2 -22 5 -12 2 9 2 23 0 30 -3 6 -5 -1 -5 -18z"/>
<path d="M16555 17468 c-16 -6 -31 -12 -33 -13 -4 -3 -40 -319 -37 -323 1 -1
23 17 48 41 79 73 119 206 83 275 -18 35 -18 35 -61 20z m42 -34 c-3 -4 -18
-6 -32 -6 -22 0 -24 -3 -13 -17 12 -14 11 -14 -4 -2 -10 7 -18 18 -18 23 0 5
8 8 18 7 33 -3 43 1 36 14 -5 9 -4 9 6 0 8 -7 11 -16 7 -19z m12 -56 c-3 -58
-28 -128 -59 -169 -31 -38 -53 -52 -45 -26 3 9 14 124 18 184 0 6 6 9 14 6 7
-3 13 0 13 6 0 6 6 8 14 5 8 -3 20 2 27 10 19 21 20 20 18 -16z"/>
<path d="M16570 17360 c0 -5 5 -10 11 -10 5 0 7 5 4 10 -3 6 -8 10 -11 10 -2
0 -4 -4 -4 -10z"/>
<path d="M16535 17339 c-4 -6 -5 -12 -2 -15 2 -3 7 2 10 11 7 17 1 20 -8 4z"/>
<path d="M11840 17410 c14 -4 32 -8 40 -9 13 -1 13 0 0 9 -8 5 -26 9 -40 9
l-25 -1 25 -8z"/>
<path d="M15386 17395 c-3 -9 -6 -22 -5 -28 0 -7 5 -1 10 12 5 13 8 26 5 28
-2 2 -6 -3 -10 -12z"/>
<path d="M11904 17375 c4 -11 23 -72 42 -135 19 -63 37 -116 39 -119 9 -8 5
19 -9 61 -8 24 -24 77 -36 118 -12 41 -27 80 -33 85 -7 7 -8 4 -3 -10z"/>
<path d="M14450 17370 c-2 -14 -4 -41 -5 -60 -10 -131 -18 -216 -22 -222 -2
-5 0 -8 5 -8 11 0 37 280 29 301 -3 8 -6 3 -7 -11z"/>
<path d="M15345 17305 c-28 -48 -85 -96 -145 -122 -83 -35 -134 -47 -340 -79
-119 -19 -148 -30 -50 -19 325 34 487 101 551 227 27 53 17 48 -16 -7z"/>
<path d="M14282 17300 c0 -14 2 -19 5 -12 2 6 2 18 0 25 -3 6 -5 1 -5 -13z"/>
<path d="M14281 17254 c0 -11 3 -14 6 -6 3 7 2 16 -1 19 -3 4 -6 -2 -5 -13z"/>
<path d="M12061 17196 c-10 -18 -11 -33 -3 -57 73 -238 108 -337 125 -354 12
-11 16 -13 10 -5 -6 8 -38 99 -72 202 -52 156 -60 190 -51 208 6 12 10 24 7
26 -2 2 -9 -7 -16 -20z"/>
<path d="M11800 17201 c0 -5 15 -14 33 -22 17 -7 56 -28 85 -46 62 -39 80 -43
31 -7 -46 34 -149 87 -149 75z"/>
<path d="M11802 17048 l-2 -128 123 2 122 2 -115 5 -115 6 -5 120 -6 120 -2
-127z"/>
<path d="M14271 17154 c0 -11 3 -14 6 -6 3 7 2 16 -1 19 -3 4 -6 -2 -5 -13z"/>
<path d="M14688 17073 c12 -2 30 -2 40 0 9 3 -1 5 -23 4 -22 0 -30 -2 -17 -4z"/>
<path d="M14296 16918 c3 -5 10 -6 15 -3 13 9 11 12 -6 12 -8 0 -12 -4 -9 -9z"/>
<path d="M12050 16899 c0 -18 146 -463 161 -491 13 -24 -7 -44 -27 -28 -6 6
-15 6 -19 2 -5 -4 -5 -1 -1 6 6 10 11 10 22 1 8 -6 14 -7 14 -2 0 14 -145 152
-210 200 -30 23 -85 58 -122 78 l-68 37 0 -145 0 -144 93 -8 c218 -17 339 -50
350 -98 4 -13 15 -44 26 -68 l19 -44 0 36 c-1 19 7 68 17 107 l17 72 -40 107
c-83 226 -79 207 -54 252 32 57 26 64 -8 9 l-29 -46 44 -127 c49 -137 51 -145
33 -127 -19 19 -50 15 -44 -5 19 -71 18 -69 26 -48 4 11 4 22 -1 25 -4 3 -4
12 1 20 7 10 10 11 10 3 0 -7 7 -13 15 -13 8 0 15 -4 15 -9 0 -5 -7 -14 -15
-21 -8 -7 -15 -19 -15 -28 0 -11 5 -9 20 8 15 17 20 19 20 8 0 -9 -7 -18 -15
-22 -8 -3 -15 -10 -15 -16 0 -6 -6 -18 -14 -25 -12 -12 -16 -12 -25 -1 -8 10
-7 17 4 26 13 11 13 14 1 24 -8 6 -52 121 -96 256 -45 135 -83 247 -86 249 -2
2 -4 -2 -4 -10z m-161 -260 c31 -17 76 -48 101 -67 64 -51 170 -154 170 -164
0 -5 -13 5 -30 22 -31 32 -40 36 -40 20 0 -5 6 -10 14 -10 14 0 26 -21 26 -43
0 -7 -9 -1 -20 13 -15 18 -18 20 -13 6 4 -12 3 -17 -4 -13 -14 9 -23 57 -11
57 5 0 6 5 2 11 -3 6 -15 9 -25 6 -10 -3 -20 0 -22 7 -2 6 -8 8 -12 4 -4 -3
-3 -14 3 -24 6 -11 11 -13 16 -5 13 20 27 12 16 -9 -6 -11 -8 -25 -5 -30 4 -7
-11 -9 -39 -8 -25 2 -46 6 -46 11 0 4 5 7 11 7 6 0 8 10 5 23 -3 12 -3 16 0
10 7 -15 34 -17 34 -3 0 9 -5 12 -30 14 -6 1 -16 -10 -23 -24 -16 -32 -52 -42
-42 -11 5 17 2 19 -20 15 -18 -3 -24 -1 -20 6 4 6 13 9 21 6 22 -8 23 7 2 29
-16 17 -18 17 -13 2 8 -20 -5 -22 -24 -4 -11 10 -12 9 -5 -3 5 -8 7 -23 6 -32
-2 -10 2 -18 8 -18 6 0 9 -4 6 -9 -4 -5 -19 -3 -36 6 l-30 14 0 110 c0 60 3
109 7 109 3 0 31 -14 62 -31z m404 -269 c-3 -12 -8 -19 -11 -16 -5 6 5 36 12
36 2 0 2 -9 -1 -20z"/>
<path d="M11916 16532 c-3 -5 1 -9 9 -9 8 0 12 4 9 9 -3 4 -7 8 -9 8 -2 0 -6
-4 -9 -8z"/>
<path d="M11991 16504 c0 -11 3 -14 6 -6 3 7 2 16 -1 19 -3 4 -6 -2 -5 -13z"/>
<path d="M11840 16464 c0 -8 5 -12 10 -9 6 4 8 11 5 16 -9 14 -15 11 -15 -7z"/>
<path d="M11940 16469 c0 -5 5 -7 10 -4 6 3 10 8 10 11 0 2 -4 4 -10 4 -5 0
-10 -5 -10 -11z"/>
<path d="M12010 16428 c0 -4 7 -8 15 -8 8 0 15 4 15 8 0 5 -7 9 -15 9 -8 0
-15 -4 -15 -9z"/>
<path d="M14330 16891 c0 -5 7 -12 16 -15 14 -5 15 -4 4 9 -14 17 -20 19 -20
6z"/>
<path d="M12202 16844 c-1 -45 0 -47 10 -20 8 21 13 25 19 15 5 -8 9 -9 9 -4
0 6 -9 21 -19 34 l-18 23 -1 -48z"/>
<path d="M12215 16540 c-3 -5 -1 -10 4 -10 6 0 11 5 11 10 0 6 -2 10 -4 10 -3
0 -8 -4 -11 -10z"/>
<path d="M12247 16383 c-4 -3 -7 -11 -7 -17 0 -6 5 -5 12 2 6 6 9 14 7 17 -3
3 -9 2 -12 -2z"/>
<path d="M11805 16213 c1 -21 3 -104 4 -184 l1 -146 158 -6 c149 -6 189 -12
314 -53 14 -5 15 -1 7 33 -5 21 -9 56 -9 78 0 37 -5 44 -58 86 -100 81 -255
176 -330 203 -40 14 -77 26 -81 26 -5 0 -7 -17 -6 -37z m55 -13 c0 -5 -4 -10
-10 -10 -5 0 -10 5 -10 10 0 6 5 10 10 10 6 0 10 -4 10 -10z m150 -56 c0 -2
-9 0 -20 6 -11 6 -20 13 -20 16 0 2 9 0 20 -6 11 -6 20 -13 20 -16z"/>
<path d="M12090 15549 c93 -51 306 -190 425 -279 73 -54 100 -68 140 -73 l49
-7 -158 155 c-87 86 -174 164 -194 174 -45 22 -195 58 -277 65 l-60 6 75 -41z"/>
<path d="M11840 15415 c0 -21 55 -145 65 -145 3 0 1 9 -5 21 -6 11 -22 48 -35
82 -13 34 -24 53 -25 42z"/>
<path d="M12740 15139 c0 -4 7 -20 15 -35 8 -16 15 -22 15 -13 0 14 -29 61
-30 48z"/>
<path d="M15525 15009 c-4 -6 -5 -12 -2 -15 2 -3 7 2 10 11 7 17 1 20 -8 4z"/>
<path d="M15116 14617 c3 -10 9 -15 12 -12 3 3 0 11 -7 18 -10 9 -11 8 -5 -6z"/>
<path d="M15261 14524 c0 -11 3 -14 6 -6 3 7 2 16 -1 19 -3 4 -6 -2 -5 -13z"/>
<path d="M15266 14444 c-4 -14 -5 -28 -3 -31 3 -2 8 8 11 23 4 14 5 28 3 31
-3 2 -8 -8 -11 -23z"/>
<path d="M12590 14275 c0 -49 46 -93 115 -109 30 -7 30 -7 -15 39 -25 26 -57
56 -72 66 -24 18 -28 18 -28 4z"/>
<path d="M14807 14019 c7 -7 15 -10 18 -7 3 3 -2 9 -12 12 -14 6 -15 5 -6 -5z"/>
<path d="M14895 14020 c-4 -6 -11 -7 -17 -4 -7 4 -8 2 -4 -5 6 -9 12 -9 24 1
10 7 19 14 21 15 2 2 -1 3 -7 3 -6 0 -14 -5 -17 -10z"/>
<path d="M14560 13961 c0 -6 -10 -9 -23 -7 -16 3 -24 -1 -24 -10 0 -8 4 -14 9
-14 4 0 8 4 8 9 0 6 12 6 30 1 34 -10 37 -6 15 16 -8 9 -15 11 -15 5z"/>
<path d="M14220 13950 c0 -5 5 -10 10 -10 6 0 10 5 10 10 0 6 -4 10 -10 10 -5
0 -10 -4 -10 -10z"/>
<path d="M14250 13949 c0 -14 43 -17 55 -5 11 10 7 13 -21 12 -19 -1 -34 -4
-34 -7z"/>
<path d="M14326 13945 c-19 -15 -19 -15 2 -15 13 0 22 6 22 15 0 18 0 18 -24
0z"/>
<path d="M14418 13953 c12 -2 20 -9 17 -14 -8 -11 15 -12 33 0 10 6 4 10 -18
15 -18 3 -38 5 -44 5 -6 -1 -1 -4 12 -6z"/>
<path d="M14491 13944 c0 -11 3 -14 6 -6 3 7 2 16 -1 19 -3 4 -6 -2 -5 -13z"/>
<path d="M14600 13944 c0 -8 5 -12 10 -9 6 4 8 11 5 16 -9 14 -15 11 -15 -7z"/>
<path d="M14635 13952 c-12 -12 -4 -19 23 -20 17 0 29 5 29 12 0 13 -41 19
-52 8z"/>
<path d="M14706 13945 c-3 -8 -1 -15 3 -15 5 0 11 7 15 15 3 8 1 15 -3 15 -5
0 -11 -7 -15 -15z"/>
<path d="M14780 13956 c0 -2 7 -9 15 -16 13 -11 14 -10 9 4 -5 14 -24 23 -24
12z"/>
<path d="M14820 13950 c0 -13 11 -13 30 0 12 8 11 10 -7 10 -13 0 -23 -4 -23
-10z"/>
<path d="M15250 13067 c0 -173 2 -316 4 -318 2 -2 85 -3 183 -1 l178 3 -3 54
-4 55 -109 0 -109 0 0 75 0 74 96 3 96 3 2 53 1 52 -98 0 -98 0 3 73 3 72 108
3 107 3 0 54 0 55 -180 0 -180 0 0 -313z"/>
<path d="M13698 13363 l-228 -3 0 -55 0 -55 85 0 85 0 0 -255 0 -255 70 0 71
0 -1 252 -1 253 31 6 c16 4 53 6 80 5 l50 -1 0 58 c0 31 -3 56 -7 55 -5 -2
-110 -4 -235 -5z"/>
<path d="M14037 13363 c-2 -5 -1 -111 3 -238 6 -252 8 -262 71 -323 49 -47
104 -65 192 -61 102 6 159 41 202 124 l30 59 0 223 0 223 -70 0 -70 0 3 -198
c3 -161 1 -205 -12 -235 -30 -74 -128 -88 -180 -26 -24 28 -26 38 -26 123 0
51 -3 148 -7 214 l-6 122 -63 0 c-35 0 -64 -3 -67 -7z"/>
<path d="M14670 13055 l0 -316 70 2 70 2 0 123 c0 93 3 124 13 124 6 0 38 -46
69 -103 83 -149 71 -139 166 -140 45 -1 82 -1 82 0 0 0 -33 57 -74 125 -63
104 -72 125 -59 133 9 6 29 19 46 30 43 29 70 85 69 150 0 61 -19 102 -62 138
-45 39 -90 47 -247 47 l-143 0 0 -315z m287 183 c32 -30 31 -81 -2 -113 -20
-21 -34 -25 -85 -25 l-60 0 0 80 0 80 62 0 c50 0 66 -4 85 -22z"/>
<path d="M12296 13352 l-69 -3 6 -181 c4 -100 7 -239 7 -310 l0 -128 71 0 72
0 -5 195 c-3 107 -3 195 1 195 3 0 60 -88 126 -195 l120 -195 74 0 74 0 -6
253 c-4 138 -7 280 -7 315 l0 62 -71 0 -71 0 8 -195 c4 -121 3 -195 -3 -195
-5 0 -62 85 -127 190 -65 104 -121 191 -124 192 -4 2 -38 2 -76 0z"/>
<path d="M12980 13138 c-40 -123 -85 -263 -101 -313 -16 -49 -29 -91 -29 -92
0 -2 33 -3 74 -3 l75 0 16 55 16 56 111 -3 111 -3 17 -49 16 -49 72 -1 c42 -1
72 3 72 9 0 6 -46 146 -102 313 l-103 302 -87 0 -87 0 -71 -222z m198 -70 c18
-57 32 -106 32 -110 0 -5 -31 -8 -70 -8 -48 0 -70 4 -70 12 0 19 64 208 70
208 3 0 20 -46 38 -102z"/>
<path d="M18070 12385 c-6 -8 -10 -22 -7 -32 4 -14 5 -14 6 4 0 12 9 27 19 32
9 6 12 11 6 11 -6 0 -17 -7 -24 -15z"/>
<path d="M16082 12378 c-7 -7 -12 -21 -11 -32 0 -15 2 -17 6 -6 3 8 12 23 21
33 17 19 3 24 -16 5z"/>
<path d="M17893 12355 c0 -22 2 -30 4 -17 2 12 2 30 0 40 -3 9 -5 -1 -4 -23z"/>
<path d="M18583 12290 c0 -90 1 -96 6 -40 4 36 4 83 0 105 -3 24 -6 -2 -6 -65z"/>
<path d="M14870 12370 c0 -5 5 -10 10 -10 6 0 10 5 10 10 0 6 -4 10 -10 10 -5
0 -10 -4 -10 -10z"/>
<path d="M15183 12345 c0 -22 2 -30 4 -17 2 12 2 30 0 40 -3 9 -5 -1 -4 -23z"/>
<path d="M16338 12308 c4 -125 9 -137 10 -30 1 56 -1 102 -5 102 -5 0 -7 -33
-5 -72z"/>
<path d="M16914 12280 c0 -58 1 -81 3 -52 2 28 2 76 0 105 -2 28 -3 5 -3 -53z"/>
<path d="M12240 12360 c0 -5 5 -10 11 -10 5 0 7 5 4 10 -3 6 -8 10 -11 10 -2
0 -4 -4 -4 -10z"/>
<path d="M13548 12345 c2 -14 6 -25 8 -25 2 0 4 11 4 25 0 14 -4 25 -9 25 -4
0 -6 -11 -3 -25z"/>
<path d="M14332 12345 c0 -16 2 -22 5 -12 2 9 2 23 0 30 -3 6 -5 -1 -5 -18z"/>
<path d="M14691 12344 c0 -11 3 -14 6 -6 3 7 2 16 -1 19 -3 4 -6 -2 -5 -13z"/>
<path d="M15900 12349 c0 -5 5 -7 10 -4 6 3 10 8 10 11 0 2 -4 4 -10 4 -5 0
-10 -5 -10 -11z"/>
<path d="M13450 12335 c0 -8 2 -15 4 -15 2 0 6 7 10 15 3 8 1 15 -4 15 -6 0
-10 -7 -10 -15z"/>
<path d="M17669 12326 c14 -8 28 -22 32 -32 7 -16 8 -17 8 -2 1 17 -35 48 -54
48 -5 -1 1 -7 14 -14z"/>
<path d="M18185 12330 c-3 -6 1 -7 9 -4 18 7 21 14 7 14 -6 0 -13 -4 -16 -10z"/>
<path d="M18272 12324 c-41 -28 -22 -134 24 -134 4 0 -2 7 -14 16 -27 18 -31
84 -6 108 32 33 85 11 97 -39 4 -18 5 -18 6 3 1 28 -32 62 -62 62 -12 0 -33
-7 -45 -16z"/>
<path d="M18442 12328 c-22 -22 -7 -68 22 -68 5 0 2 6 -8 13 -10 7 -17 22 -14
33 4 26 48 31 65 8 7 -10 13 -13 13 -8 0 17 -23 34 -45 34 -12 0 -26 -5 -33
-12z"/>
<path d="M18616 12332 c-3 -5 7 -7 23 -4 37 5 49 -13 54 -83 l3 -60 2 62 c1
45 -2 66 -14 77 -16 17 -59 22 -68 8z"/>
<path d="M16003 12255 c0 -44 2 -61 4 -37 2 23 2 59 0 80 -2 20 -4 1 -4 -43z"/>
<path d="M16162 12280 c-2 -60 17 -100 46 -99 13 0 11 3 -5 9 -24 10 -31 29
-36 100 -3 43 -4 42 -5 -10z"/>
<path d="M16270 12272 c0 -33 -5 -64 -12 -71 -9 -9 -9 -12 -1 -7 6 3 13 0 16
-6 2 -7 5 22 6 65 1 42 -1 77 -4 77 -3 0 -5 -26 -5 -58z"/>
<path d="M16556 12308 c-22 -31 -20 -84 4 -108 11 -11 25 -20 31 -20 7 0 0 9
-15 21 -19 15 -26 30 -26 54 0 24 7 39 26 54 19 15 22 21 11 21 -9 0 -23 -10
-31 -22z"/>
<path d="M16628 12320 c12 -5 22 -14 22 -20 0 -5 5 -10 12 -10 6 0 3 9 -7 20
-10 11 -25 20 -34 19 -10 0 -8 -3 7 -9z"/>
<path d="M16730 12310 c-26 -26 -26 -72 1 -101 l21 -24 -16 25 c-24 37 -20 75
10 99 15 12 22 21 15 21 -6 0 -20 -9 -31 -20z"/>
<path d="M16814 12309 c31 -24 35 -72 9 -103 -18 -21 -18 -21 5 -2 15 13 22
30 22 53 0 33 -29 72 -54 73 -5 0 3 -9 18 -21z"/>
<path d="M16980 12260 c0 -40 2 -71 4 -69 8 7 10 129 3 136 -4 3 -7 -27 -7
-67z"/>
<path d="M17062 12318 c8 -7 20 -22 26 -33 9 -15 11 -16 12 -4 0 16 -30 49
-45 49 -5 0 -2 -6 7 -12z"/>
<path d="M17173 12319 c9 -5 17 -18 18 -27 0 -11 2 -12 6 -4 6 15 -14 42 -31
42 -6 0 -3 -5 7 -11z"/>
<path d="M17417 12312 c-20 -22 -22 -81 -4 -105 6 -9 26 -19 42 -22 30 -7 30
-7 -5 12 -29 15 -36 24 -38 55 -2 27 3 43 17 57 12 12 17 21 13 21 -5 0 -16
-8 -25 -18z"/>
<path d="M17480 12326 c0 -2 7 -7 16 -10 8 -3 12 -2 9 4 -6 10 -25 14 -25 6z"/>
<path d="M17529 12323 c-6 -37 -4 -115 2 -125 5 -8 9 18 9 60 0 39 -2 72 -5
72 -3 0 -6 -3 -6 -7z"/>
<path d="M17595 12260 c0 -38 3 -70 8 -70 4 0 7 27 7 60 0 33 0 63 1 67 0 4
-3 9 -8 10 -4 2 -8 -28 -8 -67z"/>
<path d="M17776 12308 c-9 -12 -16 -34 -16 -48 0 -28 25 -70 41 -70 6 0 1 12
-10 26 -12 15 -21 34 -21 44 0 10 9 29 21 44 11 14 16 26 10 26 -5 0 -17 -10
-25 -22z"/>
<path d="M17868 12314 c16 -11 22 -25 22 -54 0 -29 -6 -43 -22 -54 -12 -9 -18
-16 -13 -16 27 1 45 29 45 70 0 41 -18 69 -45 70 -5 0 1 -7 13 -16z"/>
<path d="M18152 12260 l1 -75 7 65 c4 36 3 69 -2 75 -4 5 -7 -25 -6 -65z"/>
<path d="M13607 12313 c33 -6 42 -23 46 -88 l3 -60 2 62 c2 68 -13 94 -51 92
l-22 -2 22 -4z"/>
<path d="M13815 12309 c-4 -6 -12 -8 -19 -6 -7 3 -12 -13 -13 -47 -1 -47 -1
-48 6 -14 10 47 27 68 57 68 30 0 38 -14 45 -85 l6 -60 1 61 c2 48 -2 65 -16
77 -21 19 -58 22 -67 6z"/>
<path d="M13972 12304 c-29 -20 -31 -85 -2 -114 20 -20 64 -27 74 -11 3 4 -6
6 -20 3 -34 -6 -64 23 -64 63 0 62 62 86 99 39 12 -15 21 -21 21 -14 0 17 -42
49 -65 50 -11 0 -31 -7 -43 -16z"/>
<path d="M14400 12313 c8 -4 20 -13 27 -22 7 -9 13 -11 13 -5 0 15 -22 34 -39
33 -14 0 -14 -1 -1 -6z"/>
<path d="M14510 12300 c-28 -28 -26 -75 5 -105 28 -29 51 -31 82 -10 20 14 22
13 26 -2 3 -10 5 8 6 40 1 50 -3 62 -21 78 -13 10 -27 18 -32 19 -5 0 3 -9 18
-21 32 -25 35 -70 6 -99 -37 -37 -85 -19 -96 37 -5 26 -1 37 19 57 15 14 22
26 17 26 -6 0 -19 -9 -30 -20z"/>
<path d="M14678 12313 c8 -3 12 -26 12 -63 0 -32 4 -61 8 -64 8 -5 5 95 -3
122 -3 6 -10 12 -17 11 -10 0 -10 -2 0 -6z"/>
<path d="M14870 12310 c0 -5 5 -10 10 -10 6 0 10 5 10 10 0 6 -4 10 -10 10 -5
0 -10 -4 -10 -10z"/>
<path d="M14944 12306 c-9 -22 -1 -49 16 -54 13 -5 13 -3 1 12 -12 14 -12 22
-3 37 8 12 8 19 2 19 -6 0 -13 -6 -16 -14z"/>
<path d="M15012 12300 c14 -22 24 -19 15 5 -4 8 -11 15 -17 15 -6 0 -6 -7 2
-20z"/>
<path d="M15196 12301 c-12 -13 -16 -34 -15 -72 1 -30 4 -48 7 -41 2 6 8 9 14
6 6 -4 6 2 -1 14 -17 32 -13 70 9 92 11 11 16 20 12 20 -5 0 -16 -8 -26 -19z"/>
<path d="M15288 12297 c28 -29 28 -57 1 -91 -11 -14 -16 -26 -10 -26 16 0 41
42 41 70 0 28 -25 70 -42 70 -6 0 -2 -10 10 -23z"/>
<path d="M15376 12304 c-9 -8 -16 -20 -16 -26 0 -6 1 -9 3 -7 1 2 11 14 21 27
22 25 16 30 -8 6z"/>
<path d="M15461 12305 c10 -11 19 -29 22 -40 4 -19 5 -19 6 1 0 11 -9 29 -21
40 -23 19 -23 19 -7 -1z"/>
<path d="M15547 12302 c-10 -10 -17 -32 -17 -48 0 -32 24 -74 42 -74 6 0 2 10
-10 23 -27 29 -28 71 -2 97 11 11 16 20 12 20 -5 0 -16 -8 -25 -18z"/>
<path d="M15638 12299 c30 -34 28 -72 -4 -98 -15 -12 -22 -21 -17 -21 5 0 19
10 31 23 17 18 21 34 20 70 -1 25 -6 41 -9 35 -6 -9 -12 -8 -26 2 -11 9 -10 5
5 -11z"/>
<path d="M15723 12275 c0 -27 2 -38 4 -22 2 15 2 37 0 50 -2 12 -4 0 -4 -28z"/>
<path d="M15828 12260 c-1 -33 0 -60 5 -60 4 0 7 27 7 60 0 77 -7 77 -12 0z"/>
<path d="M18063 12255 c0 -38 2 -53 4 -32 2 20 2 52 0 70 -2 17 -4 1 -4 -38z"/>
<path d="M12243 12240 c0 -41 2 -58 4 -37 2 20 2 54 0 75 -2 20 -4 3 -4 -38z"/>
<path d="M12449 12294 c-14 -17 -3 -44 22 -53 9 -3 8 1 -4 13 -13 13 -15 22
-7 37 13 23 7 25 -11 3z"/>
<path d="M12517 12290 c9 -11 19 -17 21 -15 6 6 -18 35 -29 35 -5 0 -1 -9 8
-20z"/>
<path d="M12684 12296 c-9 -23 -1 -49 16 -54 12 -4 13 -2 3 9 -7 7 -13 21 -13
30 0 10 6 20 13 22 9 4 9 6 -1 6 -7 1 -15 -5 -18 -13z"/>
<path d="M12752 12290 c7 -10 14 -18 15 -16 6 6 -9 36 -18 36 -5 0 -4 -9 3
-20z"/>
<path d="M12837 12292 c-25 -27 -22 -85 6 -108 22 -19 22 -19 5 2 -23 26 -23
82 -1 106 9 10 14 18 11 18 -3 0 -12 -8 -21 -18z"/>
<path d="M12923 12292 c9 -10 17 -25 17 -32 0 -7 3 -11 6 -7 10 10 -6 45 -23
52 -15 5 -15 4 0 -13z"/>
<path d="M13004 12240 c-1 -52 0 -55 3 -15 2 27 11 57 18 65 12 14 12 16 -3
16 -15 0 -18 -10 -18 -66z"/>
<path d="M13093 12292 c9 -10 17 -41 20 -72 l3 -55 2 53 c2 55 -10 92 -30 92
-6 0 -4 -7 5 -18z"/>
<path d="M13197 12300 c7 -9 14 -43 16 -75 l3 -60 2 61 c2 48 -2 65 -15 75
-16 12 -17 12 -6 -1z"/>
<path d="M13287 12292 c-10 -10 -17 -32 -17 -48 0 -30 24 -74 41 -74 5 0 0 9
-11 20 -24 24 -26 77 -3 102 9 10 14 18 11 18 -3 0 -12 -8 -21 -18z"/>
<path d="M13372 12293 c9 -10 18 -27 21 -38 4 -17 5 -18 6 -2 1 24 -17 57 -31
57 -7 0 -5 -7 4 -17z"/>
<path d="M13723 12240 c0 -41 2 -58 4 -37 2 20 2 54 0 75 -2 20 -4 3 -4 -38z"/>
<path d="M16073 12245 c0 -38 2 -53 4 -32 2 20 2 52 0 70 -2 17 -4 1 -4 -38z"/>
<path d="M13452 12280 c0 -14 2 -19 5 -12 2 6 2 18 0 25 -3 6 -5 1 -5 -13z"/>
<path d="M13551 12233 c2 -70 6 -63 11 20 2 26 0 47 -4 47 -5 0 -7 -30 -7 -67z"/>
<path d="M14331 12238 c1 -68 6 -61 11 15 2 26 0 47 -4 47 -5 0 -7 -28 -7 -62z"/>
<path d="M12311 12274 c0 -11 3 -14 6 -6 3 7 2 16 -1 19 -3 4 -6 -2 -5 -13z"/>
<path d="M14443 12225 c0 -27 2 -38 4 -22 2 15 2 37 0 50 -2 12 -4 0 -4 -28z"/>
<path d="M17093 12225 c0 -22 2 -30 4 -17 2 12 2 30 0 40 -3 9 -5 -1 -4 -23z"/>
<path d="M18503 12250 c21 -14 22 -24 1 -44 -8 -9 -11 -16 -6 -16 5 0 15 7 23
16 14 18 3 45 -22 51 -8 3 -7 0 4 -7z"/>
<path d="M14878 12215 c-2 -19 0 -35 4 -35 4 0 8 16 8 35 0 19 -2 35 -4 35 -2
0 -6 -16 -8 -35z"/>
<path d="M15011 12231 c20 -16 21 -21 10 -35 -7 -9 -9 -16 -3 -16 8 0 22 22
22 35 0 8 -32 35 -42 35 -6 0 0 -8 13 -19z"/>
<path d="M15911 12234 c0 -11 3 -14 6 -6 3 7 2 16 -1 19 -3 4 -6 -2 -5 -13z"/>
<path d="M12513 12229 c26 -15 21 -46 -10 -57 -16 -6 -22 -11 -15 -11 23 -2
52 19 52 37 0 20 -18 42 -34 42 -6 0 -3 -5 7 -11z"/>
<path d="M12748 12224 c18 -12 20 -19 12 -35 -6 -10 -8 -19 -6 -19 3 0 10 9
16 19 7 15 6 23 -6 35 -8 9 -21 16 -27 16 -6 0 -1 -7 11 -16z"/>
<path d="M15361 12228 c-1 -9 6 -24 15 -32 21 -22 31 -20 12 2 -9 9 -18 24
-21 32 -4 12 -6 12 -6 -2z"/>
<path d="M12941 12218 c-1 -9 -11 -24 -23 -32 -12 -9 -18 -16 -12 -16 17 0 47
38 41 52 -4 9 -6 7 -6 -4z"/>
<path d="M14066 12215 c-3 -8 -1 -15 4 -15 6 0 10 7 10 15 0 8 -2 15 -4 15 -2
0 -6 -7 -10 -15z"/>
<path d="M18430 12224 c0 -13 18 -39 24 -34 2 3 -2 14 -10 24 -8 11 -14 16
-14 10z"/>
<path d="M15730 12211 c0 -10 29 -36 34 -30 1 2 -6 12 -16 22 -10 9 -18 13
-18 8z"/>
<path d="M16646 12204 c-5 -14 -4 -15 9 -4 17 14 19 20 6 20 -5 0 -12 -7 -15
-16z"/>
<path d="M17706 12211 c-4 -7 -5 -15 -2 -18 9 -9 19 4 14 18 -4 11 -6 11 -12
0z"/>
<path d="M18346 12205 c-11 -8 -15 -15 -9 -15 6 0 16 7 23 15 16 19 11 19 -14
0z"/>
<path d="M13460 12190 c6 -11 13 -20 16 -20 2 0 0 9 -6 20 -6 11 -13 20 -16
20 -2 0 0 -9 6 -20z"/>
<path d="M14940 12202 c0 -15 38 -35 53 -28 8 3 7 5 -2 5 -8 1 -23 8 -33 18
-10 9 -18 11 -18 5z"/>
<path d="M15456 12195 c-11 -8 -15 -15 -9 -15 6 0 16 7 23 15 16 19 11 19 -14
0z"/>
<path d="M15910 12201 c0 -6 4 -13 10 -16 6 -3 7 1 4 9 -7 18 -14 21 -14 7z"/>
<path d="M18750 12200 c0 -5 5 -10 10 -10 6 0 10 5 10 10 0 6 -4 10 -10 10 -5
0 -10 -4 -10 -10z"/>
<path d="M12440 12196 c0 -2 7 -9 15 -16 13 -11 14 -10 9 4 -5 14 -24 23 -24
12z"/>
<path d="M12680 12192 c0 -15 38 -35 53 -28 8 3 7 5 -2 5 -8 1 -23 8 -33 18
-10 9 -18 11 -18 5z"/>
<path d="M13366 12185 c-11 -8 -15 -15 -9 -15 6 0 16 7 23 15 16 19 11 19 -14
0z"/>
<path d="M14081 12174 c0 -12 -11 -34 -23 -49 -14 -18 -17 -26 -7 -23 19 6 42
54 36 76 -4 13 -5 12 -6 -4z"/>
<path d="M16395 12180 c3 -5 8 -10 11 -10 2 0 4 5 4 10 0 6 -5 10 -11 10 -5 0
-7 -4 -4 -10z"/>
<path d="M16768 12183 c6 -2 18 -2 25 0 6 3 1 5 -13 5 -14 0 -19 -2 -12 -5z"/>
<path d="M17257 12170 c3 -11 7 -20 9 -20 2 0 4 9 4 20 0 11 -4 20 -9 20 -5 0
-7 -9 -4 -20z"/>
<path d="M13960 12132 c0 -13 27 -35 39 -30 5 1 -2 11 -15 21 -13 10 -24 14
-24 9z"/>
<path d="M17602 11968 c-7 -7 -12 -20 -12 -30 0 -10 -6 -18 -12 -18 -10 0 -10
-2 -1 -8 7 -4 14 -38 16 -77 3 -59 4 -55 4 24 1 79 4 97 19 108 10 7 13 13 8
13 -6 0 -15 -5 -22 -12z"/>
<path d="M15080 11930 c0 -38 -12 -52 -25 -30 -3 6 -11 10 -17 10 -6 0 1 -9
16 -21 32 -26 34 -64 4 -98 -15 -16 -16 -20 -5 -11 16 12 20 12 28 -1 5 -9 9
23 9 89 0 56 -2 102 -5 102 -3 0 -5 -18 -5 -40z"/>
<path d="M15247 11963 c-4 -3 -7 -16 -6 -27 0 -14 2 -16 6 -6 3 8 12 21 21 28
14 10 14 12 1 12 -9 0 -19 -3 -22 -7z"/>
<path d="M17430 11928 c0 -39 -1 -40 -18 -25 -25 22 -75 21 -95 -1 -21 -23
-22 -81 -1 -110 16 -23 57 -29 84 -12 11 7 5 8 -18 4 -24 -5 -38 -2 -52 11
-24 22 -27 77 -4 99 39 40 110 0 101 -58 -2 -17 -1 -40 4 -51 4 -12 8 20 8 83
1 56 -1 102 -4 102 -3 0 -5 -19 -5 -42z"/>
<path d="M13090 11949 c0 -5 5 -7 10 -4 6 3 10 8 10 11 0 2 -4 4 -10 4 -5 0
-10 -5 -10 -11z"/>
<path d="M14024 11860 c0 -58 1 -81 3 -52 2 28 2 76 0 105 -2 28 -3 5 -3 -53z"/>
<path d="M14210 11918 c0 -39 -1 -40 -18 -25 -25 23 -68 21 -92 -3 -55 -55 16
-161 80 -120 10 6 4 8 -21 4 -30 -5 -39 -2 -53 17 -20 29 -20 58 0 87 18 26
50 28 83 6 19 -14 22 -23 19 -53 -3 -20 -2 -45 3 -56 4 -12 8 21 8 83 1 56 -1
102 -4 102 -3 0 -5 -19 -5 -42z"/>
<path d="M16072 11940 c0 -14 2 -19 5 -12 2 6 2 18 0 25 -3 6 -5 1 -5 -13z"/>
<path d="M12317 11931 c23 -22 39 -28 28 -11 -3 5 -16 15 -28 21 l-22 11 22
-21z"/>
<path d="M12252 11928 c-26 -26 -1 -79 36 -77 12 0 10 3 -6 9 -29 12 -38 37
-23 61 13 22 10 24 -7 7z"/>
<path d="M13000 11928 c0 -9 -6 -19 -12 -21 -10 -4 -10 -6 0 -6 14 -1 28 26
18 36 -3 4 -6 -1 -6 -9z"/>
<path d="M15545 11910 c-3 -5 -1 -10 4 -10 6 0 11 5 11 10 0 6 -2 10 -4 10 -3
0 -8 -4 -11 -10z"/>
<path d="M15760 11913 c8 -3 23 -12 33 -21 10 -9 17 -11 17 -4 0 13 -32 32
-52 31 -9 0 -8 -2 2 -6z"/>
<path d="M15893 11905 c-45 -31 -29 -134 21 -135 4 0 -2 8 -15 18 -50 41 -11
137 48 116 15 -5 33 -21 40 -34 11 -22 13 -23 13 -5 0 12 -12 28 -29 38 -36
21 -50 21 -78 2z"/>
<path d="M16270 11865 c0 -42 -5 -60 -20 -75 -11 -11 -16 -20 -11 -20 6 0 13
5 17 11 5 8 9 8 14 -1 4 -6 8 22 9 64 1 42 -1 76 -4 76 -3 0 -5 -25 -5 -55z"/>
<path d="M16365 11910 c-3 -5 -2 -10 4 -10 5 0 13 5 16 10 3 6 2 10 -4 10 -5
0 -13 -4 -16 -10z"/>
<path d="M16450 11898 c-11 -12 -20 -35 -20 -53 0 -33 24 -75 42 -75 6 0 2 10
-10 23 -40 42 -19 117 32 117 29 0 56 -19 56 -40 0 -14 -9 -20 -37 -23 -33 -4
-32 -4 7 -3 39 1 45 4 42 21 -4 27 -39 55 -68 55 -13 0 -32 -10 -44 -22z"/>
<path d="M16772 11904 c-40 -28 -20 -134 25 -134 11 0 8 6 -11 21 -55 43 -22
128 46 115 23 -4 29 -3 18 4 -22 14 -52 12 -78 -6z"/>
<path d="M16880 11905 c0 -8 -5 -15 -10 -15 -6 0 -5 -8 2 -20 17 -26 0 -71
-32 -87 -14 -7 -19 -13 -11 -13 8 0 23 7 33 17 17 15 18 15 18 -10 0 -40 -11
-58 -44 -73 -17 -7 -24 -13 -15 -14 9 0 28 9 42 20 25 20 26 25 25 115 0 52
-2 95 -4 95 -2 0 -4 -7 -4 -15z"/>
<path d="M16962 11904 c-29 -20 -31 -93 -4 -117 26 -24 36 -21 12 3 -24 24
-27 82 -4 104 35 36 104 3 104 -49 0 -14 -11 -37 -25 -50 -13 -14 -20 -25 -15
-25 16 0 50 52 50 77 0 30 -42 73 -72 73 -13 0 -34 -7 -46 -16z"/>
<path d="M17142 11904 c-44 -30 -17 -150 30 -131 9 4 7 6 -4 6 -36 2 -52 85
-22 115 21 22 60 20 84 -4 11 -11 20 -16 20 -12 0 17 -37 42 -61 42 -14 0 -35
-7 -47 -16z"/>
<path d="M17691 11894 c-12 -15 -21 -37 -21 -49 0 -12 9 -34 21 -49 41 -52
123 -21 123 47 0 35 -26 77 -47 77 -6 0 -1 -9 11 -20 45 -42 19 -120 -41 -120
-54 0 -71 92 -24 125 12 8 16 15 10 15 -6 0 -21 -12 -32 -26z"/>
<path d="M17861 11843 c-1 -42 1 -74 5 -71 8 8 10 136 2 143 -3 3 -6 -29 -7
-72z"/>
<path d="M17895 11910 c-3 -6 1 -7 9 -4 18 7 21 14 7 14 -6 0 -13 -4 -16 -10z"/>
<path d="M18073 11845 c30 -73 31 -75 14 -110 -9 -19 -13 -35 -8 -35 5 0 16
20 24 45 9 25 13 45 9 45 -4 0 -19 29 -32 65 -13 36 -27 65 -31 65 -4 0 7 -34
24 -75z"/>
<path d="M18149 11893 c-5 -16 -15 -41 -21 -56 -6 -15 -9 -30 -6 -32 2 -3 14
22 26 55 12 33 19 60 16 60 -2 0 -9 -12 -15 -27z"/>
<path d="M18220 11893 c-53 -67 28 -157 97 -108 39 27 38 101 -1 127 -22 15
-28 8 -8 -9 12 -10 24 -29 27 -43 8 -33 -27 -80 -60 -80 -33 0 -68 47 -60 80
3 14 15 33 27 43 11 9 16 17 10 17 -6 0 -20 -12 -32 -27z"/>
<path d="M18391 11878 c0 -26 3 -58 9 -72 10 -28 55 -45 71 -29 7 7 3 9 -13 6
-34 -6 -52 20 -59 86 l-6 56 -2 -47z"/>
<path d="M18500 11860 c0 -33 0 -63 -1 -67 0 -4 3 -9 8 -10 4 -2 8 29 8 67 0
39 -3 70 -7 70 -5 0 -8 -27 -8 -60z"/>
<path d="M12480 11892 c31 -15 36 -22 41 -67 6 -50 6 -50 7 15 0 36 -2 59 -5
53 -4 -10 -10 -10 -26 2 -12 8 -28 15 -37 15 -8 0 1 -8 20 -18z"/>
<path d="M12682 11889 c-20 -52 -21 -71 -2 -30 11 24 18 46 15 49 -2 3 -8 -6
-13 -19z"/>
<path d="M12795 11903 c31 -8 57 -35 52 -55 -3 -10 -1 -18 4 -18 5 0 9 11 9
24 0 28 -34 57 -65 55 -20 -1 -20 -1 0 -6z"/>
<path d="M13155 11903 c37 -9 45 -25 47 -87 l2 -61 3 59 c4 65 -13 97 -51 95
-20 -1 -20 -2 -1 -6z"/>
<path d="M13282 11894 c-29 -20 -31 -93 -4 -117 26 -24 36 -21 12 3 -41 41
-18 120 34 120 28 0 61 -34 53 -55 -4 -8 -2 -15 3 -15 17 0 11 39 -10 60 -24
24 -57 26 -88 4z"/>
<path d="M13511 11905 c1 -19 18 -51 18 -35 0 8 -4 22 -9 30 -5 8 -9 11 -9 5z"/>
<path d="M13600 11901 c0 -6 4 -13 10 -16 6 -3 7 1 4 9 -7 18 -14 21 -14 7z"/>
<path d="M13756 11891 c-33 -37 -13 -131 27 -131 6 0 3 6 -6 13 -28 21 -36 59
-21 95 10 26 19 32 42 32 61 0 85 -80 36 -119 -15 -12 -22 -21 -15 -21 6 0 20
9 31 20 29 29 27 94 -2 114 -31 22 -71 20 -92 -3z"/>
<path d="M13920 11835 c0 -43 2 -76 4 -74 8 7 10 139 3 146 -4 3 -7 -29 -7
-72z"/>
<path d="M13950 11900 c0 -5 7 -7 15 -4 8 4 15 8 15 10 0 2 -7 4 -15 4 -8 0
-15 -4 -15 -10z"/>
<path d="M14427 11892 c-25 -28 -22 -84 6 -110 13 -12 32 -22 43 -22 28 0 74
47 74 76 0 26 -40 74 -62 74 -7 0 -4 -6 7 -12 50 -27 59 -72 22 -106 -13 -12
-33 -22 -45 -22 -26 0 -52 35 -52 70 0 30 8 43 35 58 15 9 16 11 4 12 -9 0
-23 -8 -32 -18z"/>
<path d="M14618 11893 c-9 -10 -18 -29 -22 -43 -4 -18 -2 -17 9 7 8 17 23 36
32 42 10 6 13 11 7 11 -6 0 -18 -8 -26 -17z"/>
<path d="M14698 11890 c27 -25 29 -75 5 -104 -18 -21 -18 -21 5 -2 28 24 30
85 4 109 -10 10 -22 17 -27 17 -5 0 1 -9 13 -20z"/>
<path d="M14786 11888 c-23 -33 -20 -75 9 -103 30 -30 54 -31 89 -4 18 14 26
30 26 53 0 33 -24 76 -42 76 -6 0 -2 -10 10 -23 12 -13 22 -35 22 -50 0 -32
-32 -67 -60 -67 -28 0 -60 35 -60 67 0 15 10 37 22 50 12 13 16 23 10 23 -6 0
-18 -10 -26 -22z"/>
<path d="M14967 11892 c-27 -30 -22 -87 9 -111 15 -12 34 -21 43 -21 9 1 2 7
-15 14 -49 22 -60 80 -22 116 12 11 17 20 11 20 -5 0 -17 -8 -26 -18z"/>
<path d="M15336 11888 c-9 -12 -16 -34 -16 -48 0 -27 25 -70 41 -70 5 0 0 9
-11 20 -11 11 -20 33 -20 50 0 17 9 39 20 50 11 11 16 20 11 20 -6 0 -17 -10
-25 -22z"/>
<path d="M15430 11890 c27 -27 26 -74 -2 -100 -12 -11 -17 -20 -10 -20 17 0
42 41 42 70 0 27 -25 70 -41 70 -5 0 0 -9 11 -20z"/>
<path d="M15513 11840 c0 -41 2 -58 4 -37 2 20 2 54 0 75 -2 20 -4 3 -4 -38z"/>
<path d="M15700 11840 c0 -40 2 -71 4 -69 8 7 10 129 3 136 -4 3 -7 -27 -7
-67z"/>
<path d="M16074 11840 c1 -60 3 -65 24 -66 18 -1 18 -1 3 3 -17 4 -21 14 -24
66 l-3 62 0 -65z"/>
<path d="M16162 11862 c-2 -60 10 -92 36 -92 13 0 12 3 -5 15 -17 12 -23 28
-26 73 l-3 57 -2 -53z"/>
<path d="M12410 11881 c-16 -31 -12 -86 8 -104 26 -24 36 -21 12 3 -24 24 -26
77 -3 102 9 10 11 18 5 18 -6 0 -16 -9 -22 -19z"/>
<path d="M12586 11880 c3 -14 11 -32 16 -40 6 -10 7 -7 2 10 -3 14 -11 32 -16
40 -6 10 -7 7 -2 -10z"/>
<path d="M12744 11875 c-17 -27 -14 -76 7 -102 21 -25 30 -13 10 13 -25 32
-27 61 -5 92 8 12 13 22 10 22 -3 0 -13 -11 -22 -25z"/>
<path d="M13110 11885 c-7 -9 -11 -17 -9 -20 3 -2 10 5 17 15 14 24 10 26 -8
5z"/>
<path d="M15243 11835 c0 -38 2 -53 4 -32 2 20 2 52 0 70 -2 17 -4 1 -4 -38z"/>
<path d="M16343 11835 c0 -38 2 -53 4 -32 2 20 2 52 0 70 -2 17 -4 1 -4 -38z"/>
<path d="M13002 11865 c0 -16 2 -22 5 -12 2 9 2 23 0 30 -3 6 -5 -1 -5 -18z"/>
<path d="M13676 11854 c-4 -14 -5 -28 -3 -31 3 -2 8 8 11 23 4 14 5 28 3 31
-3 2 -8 -8 -11 -23z"/>
<path d="M15813 11820 c0 -30 2 -43 4 -27 2 15 2 39 0 55 -2 15 -4 2 -4 -28z"/>
<path d="M13621 11844 c0 -11 3 -14 6 -6 3 7 2 16 -1 19 -3 4 -6 -2 -5 -13z"/>
<path d="M17244 11828 c-6 -19 -20 -38 -34 -45 -16 -8 -19 -13 -9 -13 21 0 46
28 54 63 10 38 0 34 -11 -5z"/>
<path d="M12330 11830 c16 -16 18 -25 10 -39 -5 -11 -15 -22 -22 -24 -9 -4
-10 -6 -1 -6 33 -2 47 62 19 81 -22 15 -25 7 -6 -12z"/>
<path d="M13531 11840 c0 -8 4 -24 9 -35 5 -13 9 -14 9 -5 0 8 -4 24 -9 35 -5
13 -9 14 -9 5z"/>
<path d="M13308 11833 c12 -2 30 -2 40 0 9 3 -1 5 -23 4 -22 0 -30 -2 -17 -4z"/>
<path d="M15991 11818 c0 -9 -11 -24 -23 -32 -12 -9 -18 -16 -13 -16 21 1 47
29 42 47 -4 15 -5 16 -6 1z"/>
<path d="M12611 11815 c-1 -20 26 -58 33 -46 4 6 3 11 -2 11 -5 0 -14 10 -20
23 -6 12 -11 18 -11 12z"/>
<path d="M13571 11804 c0 -11 3 -14 6 -6 3 7 2 16 -1 19 -3 4 -6 -2 -5 -13z"/>
<path d="M14600 11807 c0 -21 44 -50 67 -44 15 4 14 5 -4 6 -12 0 -31 13 -42
27 -15 19 -21 22 -21 11z"/>
<path d="M16531 11789 c-13 -10 -19 -19 -14 -19 13 0 49 27 43 33 -3 3 -16 -3
-29 -14z"/>
<path d="M12240 11793 c0 -13 29 -38 35 -31 3 3 -4 13 -15 23 -11 10 -20 13
-20 8z"/>
<path d="M12831 11780 c-13 -11 -19 -20 -14 -20 6 0 18 9 28 20 23 25 17 25
-14 0z"/>
<path d="M13010 11780 c6 -11 13 -20 16 -20 2 0 0 9 -6 20 -6 11 -13 20 -16
20 -2 0 0 -9 6 -20z"/>
<path d="M13355 11780 c-10 -11 -13 -20 -8 -20 13 0 38 29 31 35 -3 3 -13 -4
-23 -15z"/>
<path d="M12485 11770 c-3 -5 -2 -10 4 -10 5 0 13 5 16 10 3 6 2 10 -4 10 -5
0 -13 -4 -16 -10z"/>
<path d="M13550 11770 c0 -5 5 -10 10 -10 6 0 10 5 10 10 0 6 -4 10 -10 10 -5
0 -10 -4 -10 -10z"/>
<path d="M13645 11770 c3 -5 8 -10 11 -10 2 0 4 5 4 10 0 6 -5 10 -11 10 -5 0
-7 -4 -4 -10z"/>
<path d="M14541 11759 c-2 -52 -64 -77 -104 -41 -16 13 -19 14 -15 2 6 -20 49
-34 81 -26 31 7 50 38 44 69 -4 19 -4 19 -6 -4z"/>
<path d="M16605 11770 c3 -5 8 -10 11 -10 2 0 4 5 4 10 0 6 -5 10 -11 10 -5 0
-7 -4 -4 -10z"/>
<path d="M16760 11733 c0 -12 28 -38 34 -32 2 2 -5 13 -15 23 -11 11 -19 15
-19 9z"/>
<path d="M17603 29993 c15 -2 39 -2 55 0 15 2 2 4 -28 4 -30 0 -43 -2 -27 -4z"/>
<path d="M17403 29983 c9 -2 23 -2 30 0 6 3 -1 5 -18 5 -16 0 -22 -2 -12 -5z"/>
<path d="M17040 29960 c-12 -8 -10 -10 8 -10 13 0 20 4 17 10 -7 12 -6 12 -25
0z"/>
<path d="M16978 29953 c7 -3 16 -2 19 1 4 3 -2 6 -13 5 -11 0 -14 -3 -6 -6z"/>
<path d="M16768 29943 c7 -3 16 -2 19 1 4 3 -2 6 -13 5 -11 0 -14 -3 -6 -6z"/>
<path d="M16533 29923 c9 -2 23 -2 30 0 6 3 -1 5 -18 5 -16 0 -22 -2 -12 -5z"/>
<path d="M16248 29903 c7 -3 16 -2 19 1 4 3 -2 6 -13 5 -11 0 -14 -3 -6 -6z"/>
<path d="M16038 29893 c12 -2 32 -2 45 0 12 2 2 4 -23 4 -25 0 -35 -2 -22 -4z"/>
<path d="M15888 29883 c6 -2 18 -2 25 0 6 3 1 5 -13 5 -14 0 -19 -2 -12 -5z"/>
<path d="M21650 29832 c36 -33 49 -51 41 -56 -16 -10 5 -36 29 -36 21 0 53
-35 48 -52 -3 -7 0 -18 6 -25 35 -39 35 -41 17 -57 -10 -9 -24 -16 -32 -15 -8
0 -3 4 9 10 23 9 26 36 3 32 -6 -2 -11 2 -11 8 0 6 -9 8 -20 4 -11 -3 -20 -3
-20 2 0 5 -9 9 -20 9 -11 0 -20 -4 -20 -8 0 -14 -23 -8 -36 10 -10 13 -15 14
-23 5 -6 -7 -8 -11 -5 -8 11 8 34 -16 27 -28 -4 -7 0 -8 12 -3 22 8 39 -13 24
-30 -6 -8 10 -38 53 -95 34 -46 83 -120 110 -164 26 -44 48 -75 49 -70 3 28
-5 66 -25 125 -13 36 -22 76 -21 90 1 14 -1 27 -5 30 -5 3 -10 21 -12 40 -1
19 -7 38 -13 42 -5 4 -7 9 -4 12 20 21 82 -73 124 -189 10 -27 47 -99 81 -160
35 -60 79 -154 99 -208 33 -93 88 -287 99 -352 15 -81 36 -316 42 -445 12
-291 20 -1932 17 -3405 -5 -2624 -4 -3084 4 -3299 15 -385 8 -5776 -12 -9111
-3 -500 -8 -1232 -10 -1625 -2 -393 -7 -1014 -9 -1380 -3 -366 -8 -1128 -12
-1695 -3 -566 -7 -1092 -8 -1168 -1 -141 18 -267 42 -275 6 -2 8 -10 5 -18 -3
-8 2 -23 11 -33 12 -13 14 -21 7 -26 -16 -10 -13 -23 7 -28 15 -4 15 -5 -2 -6
-12 -1 -16 -6 -12 -17 3 -9 6 -18 6 -20 0 -3 5 -2 12 2 8 5 9 2 3 -12 -4 -10
-8 -38 -9 -61 0 -23 -4 -39 -8 -37 -19 12 -5 -13 15 -27 l23 -17 27 102 c35
129 54 260 66 461 14 227 28 1549 36 3535 3 657 7 1503 10 1880 27 3771 27
13530 0 15795 -8 641 -21 796 -91 1084 -38 157 -72 249 -141 386 -113 226
-300 453 -461 562 -18 13 -35 23 -37 23 -2 0 -26 14 -52 30 -77 49 -95 39 -33
-18z m74 -200 c3 -5 -1 -9 -9 -9 -8 0 -15 4 -15 9 0 4 4 8 9 8 6 0 12 -4 15
-8z"/>
<path d="M15198 29833 c7 -3 16 -2 19 1 4 3 -2 6 -13 5 -11 0 -14 -3 -6 -6z"/>
<path d="M21546 29742 c-2 -4 10 -9 27 -9 26 -2 28 0 12 7 -26 11 -33 12 -39
2z"/>
<path d="M21740 29711 c0 -6 4 -13 10 -16 6 -3 7 1 4 9 -7 18 -14 21 -14 7z"/>
<path d="M21618 29703 c7 -3 16 -2 19 1 4 3 -2 6 -13 5 -11 0 -14 -3 -6 -6z"/>
<path d="M11490 29199 l-35 -31 32 22 c29 19 50 40 41 40 -2 0 -19 -14 -38
-31z"/>
<path d="M11384 29108 l-29 -33 33 29 c30 28 37 36 29 36 -2 0 -16 -15 -33
-32z"/>
<path d="M10897 28088 c-3 -13 -8 -59 -11 -103 l-5 -80 13 100 c13 97 14 131
3 83z"/>
<path d="M10873 27855 c0 -22 2 -30 4 -17 2 12 2 30 0 40 -3 9 -5 -1 -4 -23z"/>
<path d="M10863 27685 c0 -27 2 -38 4 -22 2 15 2 37 0 50 -2 12 -4 0 -4 -28z"/>
<path d="M10863 27565 c0 -22 2 -30 4 -17 2 12 2 30 0 40 -3 9 -5 -1 -4 -23z"/>
<path d="M10812 17375 c0 -16 2 -22 5 -12 2 9 2 23 0 30 -3 6 -5 -1 -5 -18z"/>
<path d="M10808 16698 c-9 -1155 -8 -7758 0 -7758 5 0 10 503 12 1148 4 1614
1 7145 -4 7150 -3 2 -6 -241 -8 -540z"/>
<path d="M10801 8914 c0 -11 3 -14 6 -6 3 7 2 16 -1 19 -3 4 -6 -2 -5 -13z"/>
<path d="M10790 7830 c0 -88 4 -160 8 -160 4 0 8 72 9 160 0 89 -3 160 -8 160
-5 0 -9 -72 -9 -160z"/>
<path d="M10794 7235 c0 -82 2 -115 3 -72 2 43 2 110 0 150 -1 40 -3 5 -3 -78z"/>
<path d="M10792 7030 c0 -14 2 -19 5 -12 2 6 2 18 0 25 -3 6 -5 1 -5 -13z"/>
<path d="M10803 6925 c0 -22 2 -30 4 -17 2 12 2 30 0 40 -3 9 -5 -1 -4 -23z"/>
<path d="M10802 6860 c0 -14 2 -19 5 -12 2 6 2 18 0 25 -3 6 -5 1 -5 -13z"/>
<path d="M22300 5970 c-13 -8 -12 -10 3 -10 9 0 17 5 17 10 0 12 -1 12 -20 0z"/>
<path d="M22286 5893 c-6 -14 -5 -15 5 -6 7 7 10 15 7 18 -3 3 -9 -2 -12 -12z"/>
<path d="M22119 5503 c-13 -16 -12 -17 4 -4 16 13 21 21 13 21 -2 0 -10 -8
-17 -17z"/>
<path d="M22056 5415 c-15 -19 -22 -35 -17 -35 6 0 16 10 22 23 7 12 17 25 23
29 6 4 8 10 5 13 -4 3 -18 -10 -33 -30z"/>
<path d="M21988 5320 c-27 -26 -48 -53 -48 -59 0 -6 -4 -11 -10 -11 -5 0 -10
-7 -10 -15 0 -8 -3 -14 -7 -13 -12 4 -53 -35 -53 -49 0 -7 -6 -13 -13 -13 -6
0 -25 -13 -40 -30 -16 -16 -24 -30 -17 -30 13 0 32 15 68 55 15 16 44 45 65
64 20 19 37 38 37 43 0 4 18 27 40 49 22 23 40 45 40 50 0 12 1 13 -52 -41z"/>
<path d="M21720 5066 c-5 -11 -9 -15 -9 -8 -1 8 -15 2 -38 -17 -21 -17 -46
-31 -56 -31 -10 0 -15 -5 -12 -10 3 -6 -2 -13 -12 -17 -10 -3 -22 -13 -26 -20
-6 -9 -16 -11 -30 -7 -20 6 -21 5 -7 -11 14 -16 13 -17 -8 -11 -14 5 -22 3
-22 -4 0 -6 -4 -8 -10 -5 -5 3 -10 3 -10 -2 0 -4 -15 -15 -32 -22 -18 -8 -39
-21 -46 -28 -8 -7 -18 -11 -23 -8 -5 4 -9 2 -9 -4 0 -5 -11 -8 -25 -5 -15 3
-24 0 -23 -7 2 -6 -17 -17 -42 -24 -25 -7 -63 -20 -85 -29 -22 -8 -48 -15 -57
-16 -10 0 -18 -6 -18 -12 0 -10 -2 -10 -8 -1 -5 8 -19 6 -51 -9 -24 -11 -52
-18 -62 -15 -10 3 -19 1 -21 -3 -2 -5 -22 -11 -45 -13 -23 -3 -48 -9 -55 -13
-10 -7 -52 -11 -140 -15 -10 0 -18 -3 -18 -7 0 -7 -95 -11 -265 -12 -165 -1
-830 15 -830 20 0 1 -58 3 -130 5 -71 2 -197 6 -280 10 -82 3 -215 8 -295 11
-353 12 -412 14 -535 19 -71 4 -213 8 -315 10 -186 5 -320 9 -550 20 -69 3
-181 8 -250 10 -69 3 -134 7 -145 9 -48 9 -269 23 -490 31 -77 3 -174 8 -215
11 -41 2 -253 7 -470 9 -526 7 -727 12 -740 20 -5 3 -10 1 -10 -5 0 -6 -4 -9
-9 -6 -5 4 -76 9 -158 12 -237 10 -280 12 -428 18 -230 11 -414 17 -515 19
-52 1 -100 5 -107 10 -6 4 -14 3 -18 -3 -4 -6 -10 -8 -14 -6 -4 3 -79 7 -166
10 -88 4 -216 9 -285 12 -69 3 -188 7 -265 10 -465 13 -721 23 -759 31 -19 3
-26 2 -22 -6 4 -6 21 -11 37 -11 35 0 72 -17 64 -29 -8 -14 61 -22 447 -51 75
-5 152 -12 170 -14 18 -3 123 -7 233 -11 110 -3 252 -7 315 -10 569 -23 1143
-43 1460 -50 235 -6 600 -21 705 -30 47 -4 128 -7 460 -20 77 -3 167 -8 200
-10 33 -2 204 -7 380 -10 176 -3 370 -8 430 -10 61 -3 245 -10 410 -15 165 -6
354 -15 420 -20 152 -13 233 -17 475 -25 107 -3 238 -8 290 -10 52 -3 176 -7
275 -10 99 -3 205 -7 235 -10 30 -2 159 -7 285 -10 127 -3 273 -8 325 -11 212
-11 238 -12 300 -2 36 5 92 11 125 13 33 2 60 4 60 5 0 1 9 3 19 5 11 2 23 10
28 18 5 10 33 17 80 22 94 9 220 29 333 54 121 27 135 32 135 43 0 5 4 7 10 3
17 -11 135 34 310 119 94 46 190 111 303 207 5 3 -3 7 -18 7 -18 0 -29 -8 -35
-22z"/>
<path d="M12285 4610 c-4 -6 -11 -8 -16 -5 -5 4 -9 1 -9 -4 0 -16 16 -13 30 4
7 8 10 15 7 15 -3 0 -9 -5 -12 -10z"/>
<path d="M12150 4595 c-11 -13 -10 -14 4 -9 9 3 16 10 16 15 0 13 -6 11 -20
-6z"/>
<path d="M12189 4589 c-23 -19 -23 -20 -2 -10 12 6 25 16 28 21 10 16 -1 12
-26 -11z"/>
<path d="M12394 4598 c-3 -4 4 -8 15 -8 12 0 21 4 21 8 0 5 -7 9 -15 9 -9 0
-18 -4 -21 -9z"/>
<path d="M12450 4595 c0 -8 4 -15 10 -15 5 0 7 7 4 15 -4 8 -8 15 -10 15 -2 0
-4 -7 -4 -15z"/>
<path d="M12606 4602 c-4 -7 -18 -10 -34 -6 -21 4 -23 3 -12 -5 18 -12 80 -12
80 1 0 5 -4 7 -9 4 -5 -4 -11 -1 -13 6 -3 9 -6 9 -12 0z"/>
<path d="M12688 4603 c6 -2 18 -2 25 0 6 3 1 5 -13 5 -14 0 -19 -2 -12 -5z"/>
<path d="M12796 4595 c-4 -12 -10 -13 -25 -5 -11 5 -26 10 -33 10 -7 -1 2 -7
21 -16 25 -10 36 -11 41 -3 5 8 13 7 29 -3 17 -10 23 -10 29 -1 5 8 13 9 22 3
8 -6 32 -10 53 -10 29 0 37 4 37 18 0 12 -3 13 -8 5 -5 -8 -19 -10 -37 -7 -17
3 -46 7 -65 8 -19 1 -40 5 -46 9 -7 4 -15 0 -18 -8z"/>
<path d="M12990 4584 c0 -8 5 -12 10 -9 6 4 16 2 23 -3 12 -9 47 -13 47 -5 0
3 -6 11 -14 19 -11 11 -16 11 -20 1 -5 -9 -7 -9 -12 1 -8 17 -34 15 -34 -4z"/>
<path d="M12060 4580 c-8 -5 -12 -12 -9 -15 4 -3 12 1 19 10 14 17 11 19 -10
5z"/>
<path d="M12498 4583 c7 -3 16 -2 19 1 4 3 -2 6 -13 5 -11 0 -14 -3 -6 -6z"/>
<path d="M13090 4574 c0 -6 11 -11 25 -10 14 0 24 5 22 10 -5 14 -47 14 -47 0z"/>
<path d="M13150 4583 c0 -6 6 -16 14 -22 17 -14 66 2 65 21 0 10 -2 10 -5 1
-3 -7 -12 -9 -20 -6 -8 3 -14 -1 -14 -7 0 -9 -7 -7 -20 5 -11 10 -20 13 -20 8z"/>
<path d="M13253 4570 c-1 -11 2 -20 8 -20 5 0 9 9 9 20 0 11 -4 20 -8 20 -4 0
-8 -9 -9 -20z"/>
<path d="M11995 4570 c-4 -6 -11 -7 -17 -4 -7 4 -8 2 -4 -5 6 -9 11 -9 22 0
14 11 18 19 10 19 -3 0 -8 -5 -11 -10z"/>
<path d="M13290 4569 c0 -14 45 -18 58 -5 10 10 6 12 -23 12 -19 -1 -35 -4
-35 -7z"/>
<path d="M13380 4573 c0 -17 29 -24 51 -13 24 14 24 19 0 17 -11 0 -17 -5 -15
-9 8 -12 -11 -9 -24 4 -8 8 -12 8 -12 1z"/>
<path d="M13546 4564 c-9 -24 -7 -28 7 -16 9 8 20 8 38 -2 23 -12 25 -11 23 8
-1 12 -3 22 -3 24 -1 1 -10 -2 -21 -8 -14 -7 -20 -7 -20 0 0 16 -17 12 -24 -6z"/>
<path d="M13455 4561 c-3 -5 -1 -12 5 -16 5 -3 10 -1 10 5 0 6 5 8 12 4 7 -4
8 -3 4 4 -9 14 -23 15 -31 3z"/>
<path d="M13650 4561 c0 -7 -4 -9 -10 -6 -5 3 -10 2 -10 -3 0 -6 7 -13 16 -16
9 -4 13 -2 8 5 -4 8 1 9 17 4 13 -4 22 -6 19 -3 -32 26 -40 30 -40 19z"/>
<path d="M13703 4560 c23 -15 57 -21 57 -10 0 5 -8 8 -17 8 -10 0 -27 3 -38 6
-18 7 -18 6 -2 -4z"/>
<path d="M13783 4545 c2 -5 27 -10 55 -10 29 1 52 -2 52 -5 0 -11 179 -9 188
3 8 9 0 12 -28 12 -21 1 -36 -3 -33 -8 3 -5 0 -7 -8 -5 -8 3 -13 11 -11 17 1
6 -2 11 -8 11 -5 0 -10 -4 -10 -10 0 -15 -50 -12 -51 3 0 6 -4 4 -8 -7 -7 -17
-8 -17 -23 -2 -11 10 -19 12 -23 6 -4 -6 -11 -7 -17 -4 -18 11 -78 10 -75 -1z"/>
<path d="M14130 4543 c-35 -6 -45 -19 -21 -26 12 -3 19 -1 15 4 -6 10 9 12 19
3 9 -10 86 -11 81 -2 -3 4 2 8 10 8 9 0 16 4 16 8 0 5 -13 9 -30 9 -16 0 -30
-3 -30 -7 0 -3 -9 -6 -20 -7 -11 -1 -18 2 -15 8 4 5 5 8 3 8 -2 -1 -14 -4 -28
-6z"/>
<path d="M14332 4540 c2 -7 -3 -15 -11 -18 -8 -3 -11 0 -7 7 4 6 3 11 -3 11
-5 0 -12 -6 -14 -12 -4 -10 -7 -10 -15 0 -7 10 -11 10 -22 -3 -11 -13 -10 -14
5 -9 11 4 16 3 12 -2 -6 -11 29 -10 54 0 8 4 28 2 43 -4 35 -13 49 -13 41 0
-4 7 5 8 27 4 48 -10 109 -10 138 0 24 8 25 8 5 -9 -20 -16 -20 -16 3 -5 12 6
28 8 35 3 22 -13 47 -10 64 10 18 19 17 20 -12 13 -16 -4 -34 -6 -40 -6 -73 6
-114 6 -109 -1 10 -17 -9 -9 -22 9 -7 9 -14 12 -14 5 0 -8 -9 -9 -34 -2 -37
10 -57 9 -67 -5 -4 -4 -19 0 -33 9 -18 12 -26 14 -24 5z"/>
<path d="M12223 4518 c-15 -4 -36 -5 -45 -2 -10 3 -18 1 -18 -5 0 -6 10 -12
23 -13 28 -2 50 -5 57 -8 3 -1 30 -3 59 -5 31 -1 57 -7 59 -13 2 -7 8 -9 13
-6 6 3 18 0 27 -7 14 -11 15 -11 5 1 -18 19 -16 33 2 26 10 -4 15 1 15 14 0
11 4 20 9 20 5 0 7 -9 4 -20 -3 -12 0 -21 8 -22 13 -1 44 -3 97 -7 12 0 21 -4
20 -8 -2 -14 14 -43 25 -43 5 0 2 8 -7 19 -16 17 -16 19 1 26 10 5 23 7 28 6
6 -2 21 -3 35 -3 14 -1 19 -3 13 -5 -21 -8 -15 -18 12 -19 14 -1 25 2 25 6 0
4 7 11 16 14 13 5 15 2 11 -13 -3 -14 -1 -18 9 -14 10 3 11 10 4 23 -5 9 -6
20 -3 24 3 3 -3 6 -15 6 -13 0 -22 -6 -22 -14 0 -8 -5 -18 -11 -21 -6 -4 -9 0
-7 11 2 15 -2 18 -21 16 -14 -2 -21 0 -17 7 5 7 1 8 -10 4 -13 -5 -16 -2 -12
8 4 10 -3 15 -24 16 -24 2 -28 0 -18 -11 6 -9 7 -17 2 -20 -6 -3 -15 1 -22 10
-11 12 -15 12 -22 2 -6 -9 -7 -5 -3 10 4 13 2 22 -4 22 -6 0 -11 -5 -11 -11 0
-7 -7 -8 -17 -4 -27 11 -123 15 -123 5 0 -4 5 -10 12 -12 9 -3 9 -6 -1 -12 -8
-5 -14 -1 -18 12 -4 17 -12 20 -58 19 -29 -1 -66 -5 -82 -9z"/>
<path d="M14710 4515 c-15 -18 0 -25 42 -22 28 2 33 18 8 29 -24 11 -37 9 -50
-7z m35 -5 c-3 -5 -10 -10 -16 -10 -5 0 -9 5 -9 10 0 6 7 10 16 10 8 0 12 -4
9 -10z"/>
<path d="M12112 4511 c-11 -7 -10 -10 3 -15 23 -9 25 -8 25 9 0 17 -9 19 -28
6z"/>
<path d="M12860 4510 c0 -5 7 -7 15 -4 8 4 15 8 15 10 0 2 -7 4 -15 4 -8 0
-15 -4 -15 -10z"/>
<path d="M14794 4508 c-10 -15 1 -19 52 -18 27 0 56 0 64 0 95 -6 150 -4 150
3 0 5 6 4 14 -2 7 -6 22 -8 31 -4 10 3 16 2 13 -3 -8 -12 202 -12 221 0 9 6
12 5 8 -1 -9 -14 50 -22 85 -12 16 4 28 4 28 0 0 -4 7 -8 15 -8 18 0 18 7 1
29 -9 12 -22 16 -47 12 -19 -3 -38 -5 -44 -5 -65 4 -124 3 -133 -3 -7 -4 -12
-3 -12 1 0 5 -44 8 -97 8 -54 0 -111 3 -127 7 -17 4 -32 4 -35 0 -8 -10 -61
-10 -61 0 0 5 -10 4 -21 -3 -12 -6 -19 -7 -16 -2 3 4 -15 9 -39 9 -24 1 -47
-3 -50 -8z m646 -18 c0 -5 -2 -10 -4 -10 -3 0 -8 5 -11 10 -3 6 -1 10 4 10 6
0 11 -4 11 -10z"/>
<path d="M12030 4503 c-33 -6 -45 -19 -26 -26 9 -4 16 -2 16 4 0 5 11 7 25 5
17 -3 25 0 25 10 0 8 -3 13 -7 13 -5 -1 -19 -4 -33 -6z"/>
<path d="M13123 4503 c9 -2 23 -2 30 0 6 3 -1 5 -18 5 -16 0 -22 -2 -12 -5z"/>
<path d="M13187 4498 c-7 -4 7 -8 32 -8 24 0 41 3 37 8 -10 10 -53 10 -69 0z"/>
<path d="M15490 4498 c0 -18 15 -31 43 -35 22 -4 22 20 0 38 -15 12 -16 12
-10 -3 3 -10 4 -18 0 -18 -3 0 -12 8 -19 18 -12 16 -13 16 -14 0z"/>
<path d="M13359 4491 c5 -4 27 -6 48 -5 21 1 44 -2 51 -8 9 -8 12 -6 12 6 0
14 -10 16 -61 15 -33 -1 -56 -5 -50 -8z"/>
<path d="M13486 4489 c6 -11 52 -17 65 -9 6 4 -6 9 -29 12 -22 2 -39 0 -36 -3z"/>
<path d="M13596 4485 c4 -8 11 -15 16 -15 6 0 5 6 -2 15 -7 8 -14 15 -16 15
-2 0 -1 -7 2 -15z"/>
<path d="M15560 4479 c0 -20 4 -21 54 -16 30 3 57 3 60 0 3 -4 19 -7 35 -7 31
-1 53 15 43 31 -8 11 -53 12 -46 2 7 -12 -17 -23 -25 -12 -9 14 -62 23 -54 9
3 -6 0 -5 -8 2 -22 21 -59 15 -59 -9z"/>
<path d="M15769 4492 c9 -7 10 -12 2 -16 -6 -4 -11 -11 -11 -15 0 -11 49 -11
56 0 3 5 13 5 23 -1 12 -6 22 -5 29 2 9 9 12 9 12 -1 0 -9 8 -11 22 -8 12 3
30 2 40 -4 10 -5 18 -6 18 -2 0 4 24 8 54 8 30 0 53 -2 51 -5 -2 -3 31 -6 73
-7 212 -5 373 -12 382 -18 5 -3 10 -2 10 2 0 10 46 10 56 0 3 -3 11 -4 18 -1
6 2 33 0 59 -5 26 -4 47 -5 47 -1 0 4 15 5 33 3 93 -9 207 -10 207 -1 0 7 4 7
13 0 6 -5 32 -10 57 -11 25 0 86 -3 135 -7 110 -7 203 -6 218 3 5 3 7 2 4 -4
-4 -7 12 -10 46 -8 28 1 56 -1 62 -3 20 -12 55 -11 48 1 -4 7 1 6 11 -2 15
-13 19 -13 27 0 5 8 9 9 9 3 0 -8 32 -11 99 -10 55 0 95 -1 91 -4 -5 -3 36 -5
90 -5 55 0 100 -3 100 -6 0 -4 17 -3 38 1 20 3 49 3 65 -1 16 -4 25 -3 21 2
-3 5 -1 9 5 9 5 0 12 -4 15 -9 3 -5 43 -9 88 -9 46 -1 111 -3 146 -5 34 -3 62
-1 62 4 0 5 11 2 24 -6 20 -14 26 -14 38 -2 11 12 16 12 26 1 9 -9 19 -11 36
-4 13 5 26 7 27 5 10 -9 99 -13 99 -4 0 6 7 6 18 1 9 -5 62 -10 117 -12 55 -1
117 -4 138 -4 27 -2 37 2 37 13 1 14 2 14 10 -1 9 -14 25 -16 100 -15 50 1 90
5 90 8 0 17 -30 27 -80 28 -124 1 -309 11 -323 17 -8 3 -18 1 -21 -5 -4 -6
-18 -6 -37 -1 -17 5 -81 9 -142 10 -62 0 -124 2 -140 4 -15 2 -118 7 -230 11
-111 4 -219 8 -240 10 -26 2 -35 0 -30 -8 5 -9 3 -9 -8 0 -8 6 -36 11 -64 12
-27 0 -95 3 -150 6 -55 3 -163 7 -240 10 -77 2 -140 4 -140 5 0 1 -43 3 -95 6
-52 2 -122 5 -155 8 -33 2 -68 -1 -79 -6 -12 -7 -16 -7 -12 0 3 6 -25 9 -74 8
-44 0 -81 2 -83 6 -1 3 -95 8 -209 10 -132 3 -205 1 -201 -5 4 -6 1 -7 -8 -1
-19 12 -52 11 -61 -1 -5 -6 -11 -5 -17 4 -6 9 -23 13 -48 12 -46 -4 -71 -3
-98 2 -11 3 -28 0 -39 -5 -13 -7 -16 -7 -11 1 7 13 -39 11 -51 -2 -10 -10 -26
-9 -20 2 8 12 -54 20 -80 11 -11 -5 -41 -6 -67 -3 -31 4 -47 2 -47 -6 0 -6 -5
-11 -11 -11 -5 0 -8 4 -5 8 3 5 0 9 -7 9 -7 0 -28 3 -47 7 -23 5 -30 4 -21 -2z"/>
<path d="M11918 4483 c-16 -2 -28 -8 -28 -13 0 -4 19 -4 42 2 70 15 61 22 -14
11z"/>
<path d="M12758 4481 c-14 -5 -15 -10 -3 -36 l14 -30 -4 28 c-4 29 11 36 34
15 11 -10 13 -10 7 0 -4 7 -1 12 8 12 9 0 16 -5 16 -11 0 -6 5 -9 11 -7 9 3
14 17 7 18 -2 1 -19 5 -38 9 -20 4 -43 5 -52 2z"/>
<path d="M13685 4481 c-3 -6 4 -9 15 -8 11 1 20 5 20 9 0 11 -28 10 -35 -1z"/>
<path d="M13752 4481 c-11 -6 -10 -10 4 -15 9 -3 19 -4 22 -1 3 3 0 5 -7 5 -7
0 -9 5 -6 10 7 12 4 12 -13 1z"/>
<path d="M12220 4470 c-9 -6 -10 -10 -3 -10 6 0 15 5 18 10 8 12 4 12 -15 0z"/>
<path d="M13007 4464 c2 -7 11 -10 19 -7 19 7 18 10 -5 16 -13 3 -18 1 -14 -9z"/>
<path d="M13147 4465 c3 -8 9 -12 14 -9 12 7 11 11 -5 17 -10 4 -13 1 -9 -8z"/>
<path d="M13846 4473 c5 -5 12 -12 15 -16 3 -5 9 -2 12 7 5 12 0 16 -15 16
-12 0 -17 -3 -12 -7z"/>
<path d="M13890 4470 c0 -5 7 -10 16 -10 8 0 12 5 9 10 -3 6 -10 10 -16 10 -5
0 -9 -4 -9 -10z"/>
<path d="M13933 4458 c1 -15 4 -16 12 -6 5 7 21 12 35 10 14 -2 21 0 17 4 -5
5 -21 9 -37 10 -22 1 -28 -3 -27 -18z"/>
<path d="M14010 4470 c0 -5 9 -10 19 -10 11 0 23 -5 27 -11 4 -8 9 -7 15 2 5
9 2 16 -9 21 -26 10 -52 9 -52 -2z"/>
<path d="M14111 4464 c6 -8 25 -12 43 -10 17 1 40 -2 51 -7 18 -8 18 -8 5 6
-8 9 -37 18 -63 21 -40 3 -46 2 -36 -10z"/>
<path d="M11844 4455 c-18 -13 -18 -14 4 -8 12 3 25 9 28 14 8 14 -10 11 -32
-6z"/>
<path d="M12940 4456 c0 -8 4 -17 9 -20 5 -4 7 3 4 14 -6 23 -13 26 -13 6z"/>
<path d="M13077 4449 c3 -10 0 -19 -6 -19 -6 0 -11 -8 -11 -17 0 -15 4 -13 20
7 12 15 20 19 20 11 0 -8 2 -12 5 -9 8 8 -5 36 -20 41 -9 4 -11 -1 -8 -14z"/>
<path d="M13187 4454 c-15 -8 -25 -20 -21 -25 3 -6 11 -3 18 7 12 15 13 15 19
0 4 -9 11 -16 17 -16 8 0 8 6 0 20 -7 14 -7 20 0 20 5 0 10 -4 10 -9 0 -5 7
-11 14 -14 11 -4 13 -1 9 10 -5 12 -3 14 8 8 8 -5 11 -4 6 0 -14 15 -51 15
-80 -1z"/>
<path d="M13483 4458 c3 -10 2 -20 -4 -23 -5 -4 -12 0 -15 8 -4 12 -13 13 -35
7 -16 -5 -29 -5 -29 -1 0 13 -29 8 -34 -5 -5 -13 -35 -9 -46 7 -3 3 -16 2 -30
-3 -17 -6 -21 -11 -12 -17 7 -4 10 -16 6 -27 -6 -18 -6 -18 9 1 11 15 12 22 4
27 -8 5 -6 8 6 8 9 0 17 -4 17 -10 0 -5 3 -9 8 -8 14 4 52 -13 52 -24 0 -6 6
-6 15 2 8 7 15 19 15 26 0 14 8 14 65 1 6 -2 16 -6 23 -10 19 -12 15 21 -5 41
-16 16 -16 16 -10 0z m-83 -27 c0 -6 -4 -13 -10 -16 -5 -3 -10 1 -10 9 0 9 5
16 10 16 6 0 10 -4 10 -9z"/>
<path d="M14234 4462 c5 -8 66 -4 66 4 0 2 -16 4 -36 4 -19 0 -33 -4 -30 -8z"/>
<path d="M12420 4445 c-7 -9 -8 -15 -2 -15 5 0 12 7 16 15 3 8 4 15 2 15 -2 0
-9 -7 -16 -15z"/>
<path d="M12983 4450 c2 -8 12 -16 23 -17 13 -2 15 -1 4 4 -8 3 -19 11 -23 17
-6 7 -7 6 -4 -4z"/>
<path d="M13120 4449 c0 -5 5 -7 10 -4 6 3 10 8 10 11 0 2 -4 4 -10 4 -5 0
-10 -5 -10 -11z"/>
<path d="M14310 4450 c-8 -5 -10 -10 -5 -10 6 0 17 5 25 10 8 5 11 10 5 10 -5
0 -17 -5 -25 -10z"/>
<path d="M14430 4450 c0 -5 3 -10 8 -11 4 0 19 -2 35 -4 17 -2 27 1 27 9 0 16
-32 17 -42 2 -5 -8 -8 -7 -8 2 0 6 -4 12 -10 12 -5 0 -10 -4 -10 -10z"/>
<path d="M12180 4439 c0 -5 5 -7 10 -4 6 3 10 8 10 11 0 2 -4 4 -10 4 -5 0
-10 -5 -10 -11z"/>
<path d="M13531 4436 c-8 -9 -8 -16 -2 -20 5 -3 11 0 14 6 3 10 7 10 19 0 13
-10 17 -10 22 0 3 7 4 3 2 -10 -3 -15 0 -22 7 -19 15 5 18 47 3 48 -6 0 -21 2
-32 5 -12 2 -27 -3 -33 -10z"/>
<path d="M13811 4419 c-13 -37 -8 -50 8 -21 6 11 7 22 4 26 -3 3 -2 6 4 6 6 0
14 -10 17 -22 l7 -23 10 24 c9 23 10 23 29 6 11 -10 28 -15 40 -12 11 3 27 -1
35 -10 13 -13 15 -12 15 2 0 11 5 15 14 12 8 -3 20 1 26 9 9 10 9 14 1 14 -6
0 -11 -6 -11 -12 0 -8 -3 -9 -8 -3 -9 12 -44 16 -36 4 3 -5 0 -9 -5 -9 -6 0
-11 5 -11 10 0 6 -8 5 -20 -2 -16 -11 -22 -10 -33 6 -9 13 -20 17 -32 12 -10
-3 -23 -2 -30 4 -10 8 -16 3 -24 -21z"/>
<path d="M14510 4441 c0 -5 7 -12 16 -15 14 -5 15 -4 4 9 -14 17 -20 19 -20 6z"/>
<path d="M14555 4440 c4 -6 11 -8 16 -5 14 9 11 15 -7 15 -8 0 -12 -5 -9 -10z"/>
<path d="M14598 4443 c7 -3 16 -2 19 1 4 3 -2 6 -13 5 -11 0 -14 -3 -6 -6z"/>
<path d="M13644 4431 c4 -5 0 -12 -6 -14 -10 -4 -10 -6 0 -6 22 -2 27 -4 39
-20 6 -9 15 -13 19 -8 8 8 -34 57 -48 57 -5 0 -7 -4 -4 -9z"/>
<path d="M13726 4430 c-19 -6 -19 -7 2 -12 12 -4 22 -2 22 4 0 6 6 5 15 -2 8
-7 12 -17 9 -24 -3 -6 1 -2 10 8 8 10 13 22 11 26 -6 9 -44 9 -69 0z"/>
<path d="M13910 4430 c0 -5 5 -10 11 -10 5 0 7 5 4 10 -3 6 -8 10 -11 10 -2 0
-4 -4 -4 -10z"/>
<path d="M14700 4429 c0 -5 5 -7 10 -4 6 3 10 8 10 11 0 2 -4 4 -10 4 -5 0
-10 -5 -10 -11z"/>
<path d="M14831 4424 c0 -11 3 -14 6 -6 3 7 2 16 -1 19 -3 4 -6 -2 -5 -13z"/>
<path d="M14860 4430 c0 -6 7 -10 15 -10 8 0 15 2 15 4 0 2 -7 6 -15 10 -8 3
-15 1 -15 -4z"/>
<path d="M14903 4434 c9 -10 96 -14 101 -5 3 5 -19 9 -50 10 -31 0 -54 -2 -51
-5z"/>
<path d="M15055 4431 c-1 -3 15 -7 36 -9 21 -1 39 1 39 5 0 9 -69 12 -75 4z"/>
<path d="M12815 4419 c-4 -6 -5 -12 -2 -15 2 -3 7 2 10 11 7 17 1 20 -8 4z"/>
<path d="M14040 4411 c0 -11 4 -22 9 -25 5 -3 8 5 7 19 -1 29 -16 34 -16 6z"/>
<path d="M14165 4408 c6 -21 5 -22 -8 -5 -19 23 -34 22 -32 -3 1 -21 15 -41
15 -22 0 6 7 9 15 6 8 -3 18 -3 24 0 11 7 2 46 -11 46 -5 0 -7 -10 -3 -22z"/>
<path d="M14202 4417 c-9 -10 -10 -17 -2 -22 6 -3 8 -12 4 -18 -3 -7 1 -4 9 6
8 9 24 17 36 17 11 0 21 5 21 10 0 6 -11 8 -24 6 -14 -2 -26 0 -28 6 -2 6 -9
4 -16 -5z"/>
<path d="M14740 4420 c19 -13 30 -13 30 0 0 6 -10 10 -22 10 -19 0 -20 -2 -8
-10z"/>
<path d="M15180 4426 c0 -2 7 -6 15 -10 8 -3 15 -1 15 4 0 6 -7 10 -15 10 -8
0 -15 -2 -15 -4z"/>
<path d="M15290 4420 c0 -5 5 -10 10 -10 6 0 10 5 10 10 0 6 -4 10 -10 10 -5
0 -10 -4 -10 -10z"/>
<path d="M11724 4409 c-3 -6 -2 -15 4 -21 6 -6 11 -2 15 11 5 22 -7 29 -19 10z"/>
<path d="M13245 4410 c4 -6 11 -8 16 -5 14 9 11 15 -7 15 -8 0 -12 -5 -9 -10z"/>
<path d="M14780 4416 c0 -2 7 -7 16 -10 8 -3 12 -2 9 4 -6 10 -25 14 -25 6z"/>
<path d="M14080 4400 c-13 -8 -12 -10 3 -10 9 0 17 5 17 10 0 12 -1 12 -20 0z"/>
<path d="M14285 4400 c3 -5 1 -10 -4 -12 -5 -1 -3 -9 5 -16 12 -11 14 -10 14
4 0 10 5 14 14 11 8 -3 20 1 26 9 9 10 9 14 1 14 -6 0 -11 -6 -11 -12 0 -8 -3
-9 -8 -3 -8 12 -44 16 -37 5z"/>
<path d="M14360 4391 c0 -11 4 -22 9 -25 5 -3 8 5 7 19 -1 29 -16 34 -16 6z"/>
<path d="M14460 4401 c-17 -5 -21 -9 -12 -15 7 -4 10 -11 7 -15 -2 -4 7 -8 20
-7 14 1 25 4 25 9 0 4 0 14 0 22 0 16 -2 17 -40 6z"/>
<path d="M14521 4397 c-9 -11 -8 -17 4 -27 12 -10 15 -10 15 0 0 9 11 11 35 7
19 -3 37 -2 40 3 7 11 -23 20 -50 16 -11 -2 -23 1 -26 6 -3 5 -11 3 -18 -5z"/>
<path d="M14970 4399 c0 -5 -6 -7 -12 -3 -8 5 -8 1 2 -12 8 -10 16 -21 17 -23
5 -7 33 21 33 33 0 6 -5 3 -11 -7 -12 -20 -31 -13 -22 8 3 8 2 15 -1 15 -3 0
-6 -5 -6 -11z"/>
<path d="M15030 4392 c6 -13 14 -21 18 -18 3 4 -2 14 -12 24 -18 16 -18 16 -6
-6z"/>
<path d="M15558 4403 c6 -2 18 -2 25 0 6 3 1 5 -13 5 -14 0 -19 -2 -12 -5z"/>
<path d="M11653 4388 c-13 -6 -23 -15 -23 -20 0 -4 -7 -8 -15 -8 -9 0 -12 -6
-8 -16 5 -14 9 -13 25 9 12 17 25 23 38 20 14 -4 20 0 20 11 0 18 -6 19 -37 4z"/>
<path d="M13869 4384 c-11 -14 -11 -16 0 -10 8 5 17 3 22 -5 5 -8 9 -9 9 -4 0
6 -4 16 -9 23 -6 10 -11 9 -22 -4z"/>
<path d="M15070 4377 c-12 -20 -12 -21 3 -8 16 12 21 9 18 -12 -1 -4 15 -1 34
7 33 14 35 14 26 -3 -7 -13 -6 -18 5 -18 7 0 14 4 14 8 0 3 9 9 20 12 21 5 50
-18 29 -25 -7 -2 -6 -8 5 -17 14 -12 16 -12 11 1 -4 9 4 19 21 26 20 10 25 10
21 0 -2 -7 -10 -12 -16 -10 -6 1 -11 -2 -11 -8 0 -5 4 -10 9 -10 13 0 35 29
28 37 -4 3 -2 12 4 20 9 9 8 13 0 14 -41 3 -69 2 -79 -5 -7 -4 -12 -2 -12 4 0
12 -47 3 -68 -13 -9 -7 -11 -6 -6 7 3 9 1 16 -5 16 -6 0 -11 -5 -11 -11 0 -8
-4 -8 -13 -1 -10 8 -16 5 -27 -11z m180 -13 c0 -2 -7 -4 -15 -4 -8 0 -15 4
-15 10 0 5 7 7 15 4 8 -4 15 -8 15 -10z"/>
<path d="M14400 4380 c-13 -8 -12 -10 3 -10 9 0 17 5 17 10 0 12 -1 12 -20 0z"/>
<path d="M14750 4381 c0 -6 5 -13 10 -16 6 -3 10 1 10 9 0 9 -4 16 -10 16 -5
0 -10 -4 -10 -9z"/>
<path d="M14791 4376 c-11 -13 -6 -15 28 -14 23 0 41 5 41 10 0 6 -7 8 -15 5
-8 -4 -17 -2 -20 3 -9 14 -21 12 -34 -4z"/>
<path d="M15349 4356 c19 -20 30 -36 24 -36 -6 0 -13 6 -16 13 -2 6 -8 9 -12
5 -5 -5 -5 -11 -2 -15 9 -8 86 -10 84 -1 -1 3 3 6 8 6 6 1 9 -7 8 -16 -1 -9 0
-11 3 -5 4 10 11 10 27 1 19 -9 20 -9 11 3 -7 8 -8 22 -3 34 5 14 8 16 8 4 1
-14 31 -24 31 -10 0 3 11 6 24 6 13 0 22 -3 19 -7 -2 -5 -13 -8 -24 -8 -10 0
-19 -6 -19 -14 0 -8 -6 -17 -12 -20 -7 -3 -2 -3 12 0 14 4 28 12 32 18 5 6 8
7 8 1 0 -5 5 -3 10 5 5 8 10 10 10 4 0 -7 7 -15 16 -18 8 -3 12 -2 9 4 -3 6 0
10 7 11 7 0 4 4 -7 8 -17 7 -16 8 8 13 21 4 27 2 23 -8 -6 -16 10 -19 19 -4 3
5 -5 16 -17 24 -23 15 -164 16 -187 1 -6 -3 -11 2 -12 12 0 15 -2 14 -9 -3 -5
-12 -15 -26 -22 -30 -11 -6 -11 -5 0 9 8 9 11 21 8 26 -9 13 -36 3 -32 -12 1
-7 1 -9 -2 -4 -2 4 -18 15 -35 23 l-32 16 34 -36z"/>
<path d="M16125 4380 c3 -5 13 -10 21 -10 8 0 14 5 14 10 0 6 -9 10 -21 10
-11 0 -17 -4 -14 -10z"/>
<path d="M16250 4378 c0 -11 28 -10 35 1 3 6 -4 9 -15 8 -11 -1 -20 -5 -20 -9z"/>
<path d="M14720 4371 c0 -5 7 -11 14 -14 10 -4 13 -1 9 9 -6 15 -23 19 -23 5z"/>
<path d="M15738 4373 c-10 -2 -18 -9 -18 -14 0 -6 5 -7 12 -3 7 5 8 3 3 -5 -4
-8 1 -21 14 -32 12 -11 21 -24 21 -29 0 -6 7 -10 15 -10 8 0 15 -4 15 -8 0 -5
7 -9 16 -9 14 0 14 2 -2 15 -13 10 -15 16 -6 19 6 3 10 9 6 14 -3 5 0 9 6 9 6
0 13 -7 16 -15 5 -11 10 -12 24 -3 10 7 16 16 13 21 -3 5 -9 4 -13 -3 -5 -8
-12 -7 -24 5 -9 9 -32 21 -51 26 -20 6 -33 14 -30 20 4 5 5 8 3 8 -2 -1 -11
-3 -20 -6z m72 -42 c0 -5 -7 -14 -15 -21 -16 -14 -18 -10 -9 14 6 17 24 22 24
7z"/>
<path d="M15300 4362 c0 -5 7 -16 16 -23 14 -12 16 -11 13 5 -4 20 -29 35 -29
18z"/>
<path d="M16404 4358 c19 -56 19 -54 4 -37 -7 9 -19 14 -26 11 -10 -3 -8 -8 5
-19 16 -13 16 -14 1 -9 -9 3 -19 0 -22 -7 -2 -7 -5 -5 -5 5 -1 9 -5 20 -11 23
-6 4 -7 -1 -3 -12 6 -17 5 -17 -13 -2 -24 20 -85 37 -67 18 9 -9 8 -18 -5 -38
l-17 -26 27 18 c35 22 37 22 30 -5 -3 -13 -1 -19 6 -15 5 4 12 2 14 -5 3 -9 6
-9 12 0 4 7 2 12 -3 12 -6 0 -11 4 -11 10 0 5 16 9 35 8 19 -1 35 -6 35 -12 0
-6 5 -5 12 2 17 17 29 15 22 -3 -5 -11 -2 -13 9 -9 10 3 21 -2 29 -15 7 -12
17 -21 22 -21 4 0 2 7 -5 16 -11 14 -9 19 11 34 24 18 25 18 46 -1 19 -18 22
-18 34 -4 11 13 10 15 -6 9 -18 -5 -18 -5 -1 9 19 16 23 37 7 37 -5 0 -10 -5
-10 -11 0 -8 -5 -8 -15 1 -8 7 -15 8 -15 3 0 -10 -20 -9 -65 1 -11 2 -24 5
-29 5 -4 1 -5 8 -2 17 4 9 2 13 -5 8 -6 -4 -16 0 -21 7 -8 11 -9 10 -4 -3z
m86 -60 c0 -4 -9 -12 -19 -17 -15 -8 -20 -7 -23 7 -4 12 1 17 19 17 12 0 23
-3 23 -7z"/>
<path d="M16790 4359 c0 -5 5 -7 10 -4 6 3 10 8 10 11 0 2 -4 4 -10 4 -5 0
-10 -5 -10 -11z"/>
<path d="M16876 4358 c3 -4 9 -8 15 -8 5 0 9 4 9 8 0 5 -7 9 -15 9 -8 0 -12
-4 -9 -9z"/>
<path d="M17000 4350 c6 -11 12 -20 14 -20 2 0 2 9 -1 20 -3 11 -9 20 -15 20
-5 0 -4 -9 2 -20z"/>
<path d="M19164 4355 c3 -9 6 -18 6 -21 0 -2 7 0 17 3 11 4 14 3 9 -5 -4 -7
-2 -12 3 -12 6 0 11 5 11 10 0 7 6 7 18 1 11 -6 24 -6 35 0 9 6 23 7 29 3 20
-12 132 -12 147 0 11 8 13 8 7 -1 -4 -8 -1 -13 8 -13 9 0 16 5 16 11 0 8 4 8
14 0 8 -7 43 -14 78 -17 35 -3 69 -7 76 -9 6 -3 12 -1 12 4 0 8 26 7 88 -3 20
-3 37 0 44 8 11 11 15 10 26 -3 7 -9 10 -10 6 -2 -5 10 -3 12 7 5 14 -9 26
-10 204 -19 225 -11 357 -20 415 -29 14 -2 45 -7 70 -11 25 -4 50 -10 55 -14
6 -4 21 -6 35 -5 14 1 28 -3 32 -10 5 -7 8 -4 8 7 0 10 5 15 10 12 6 -4 7 -12
4 -18 -4 -7 -4 -9 0 -5 4 3 21 2 38 -3 19 -5 38 -4 49 2 31 16 22 28 -21 25
-22 -2 -37 0 -34 5 6 10 -61 23 -81 15 -9 -3 -14 -2 -11 3 7 11 -17 21 -61 27
-20 2 -33 0 -33 -7 0 -8 -4 -8 -14 0 -7 6 -38 13 -67 15 -30 2 -63 8 -73 12
-15 6 -17 4 -11 -7 7 -11 6 -12 -6 -3 -14 12 -173 26 -339 29 -52 2 -123 4
-157 5 -39 2 -68 -1 -77 -10 -13 -10 -17 -10 -21 1 -4 10 -32 15 -103 17 -53
2 -100 6 -105 9 -4 2 -14 0 -21 -6 -8 -7 -23 -7 -47 -1 -47 14 -149 13 -149
-1 0 -8 -5 -7 -15 1 -13 10 -19 9 -36 -6 -17 -16 -19 -16 -13 -1 3 9 2 17 -2
18 -5 0 -26 3 -48 5 -32 4 -37 2 -32 -11z"/>
<path d="M15675 4350 c-3 -5 -2 -10 4 -10 5 0 13 5 16 10 3 6 2 10 -4 10 -5 0
-13 -4 -16 -10z"/>
<path d="M15944 4343 c-17 -12 -17 -13 2 -14 18 0 18 -1 -1 -9 l-20 -8 20 -8
c28 -11 45 -30 37 -39 -4 -5 -1 -5 6 -1 6 4 12 14 12 22 0 11 6 13 21 9 15 -5
19 -4 14 5 -4 6 -17 9 -30 6 -27 -7 -38 4 -24 24 7 13 9 12 9 -2 0 -12 5 -15
15 -11 9 3 23 -1 33 -9 20 -18 51 -20 70 -5 8 6 12 6 12 -1 0 -17 61 -10 72 8
11 17 48 16 48 -1 0 -5 5 -9 10 -9 21 0 9 19 -25 39 l-35 20 -11 -22 c-13 -24
-28 -37 -44 -37 -5 0 -3 5 5 10 13 8 11 13 -9 32 -13 13 -20 17 -16 10 7 -13
-20 -41 -40 -41 -5 0 -2 6 8 13 22 17 22 22 -3 29 -22 6 -37 -8 -18 -16 29
-12 -30 -5 -63 7 -30 10 -39 10 -55 -1z"/>
<path d="M16275 4350 c3 -5 14 -10 23 -10 15 0 15 2 2 10 -20 13 -33 13 -25 0z"/>
<path d="M16750 4350 c0 -5 5 -10 10 -10 6 0 10 -4 10 -10 0 -5 -6 -7 -13 -5
-6 3 -17 -3 -23 -12 -9 -15 -6 -21 22 -35 19 -10 34 -13 34 -7 0 5 -7 12 -15
16 -14 5 -14 8 -2 27 12 18 12 23 1 34 -16 15 -24 15 -24 2z"/>
<path d="M14230 4339 c0 -5 5 -7 10 -4 6 3 10 8 10 11 0 2 -4 4 -10 4 -5 0
-10 -5 -10 -11z"/>
<path d="M15884 4339 c-3 -6 -3 -13 0 -16 3 -4 -1 -15 -11 -25 -20 -22 -11
-24 12 -2 13 14 18 14 32 2 15 -12 15 -11 5 8 -6 12 -9 24 -6 26 3 3 -2 8 -10
11 -9 4 -18 2 -22 -4z"/>
<path d="M16150 4340 c0 -5 5 -10 10 -10 6 0 10 5 10 10 0 6 -4 10 -10 10 -5
0 -10 -4 -10 -10z"/>
<path d="M17317 4331 c12 -11 17 -13 21 -3 2 6 8 12 13 12 6 0 7 -5 3 -12 -5
-7 -3 -8 5 -4 17 11 5 20 -29 22 -27 1 -28 0 -13 -15z"/>
<path d="M17450 4335 c-9 -11 -9 -15 -1 -15 7 0 9 -4 6 -10 -3 -5 -11 -10 -16
-10 -6 0 -8 4 -5 9 11 17 -45 19 -61 2 -21 -20 -34 -21 -55 -3 -15 13 -18 13
-18 1 0 -8 -10 -14 -24 -14 -13 0 -22 3 -20 6 2 4 -5 9 -15 12 -13 3 -18 0
-15 -8 6 -14 -22 -13 -79 1 -17 4 -33 1 -44 -7 -9 -8 -14 -9 -10 -3 4 7 -7 10
-32 10 -22 -1 -37 -4 -35 -8 2 -4 0 -9 -6 -13 -5 -3 -10 1 -10 9 0 10 -6 13
-16 9 -8 -3 -13 -12 -10 -19 3 -8 2 -14 -3 -14 -5 0 -11 9 -14 20 -3 13 -10
18 -21 14 -16 -6 -23 -45 -8 -43 26 4 52 -3 52 -15 0 -9 7 -12 20 -9 11 3 17
10 14 15 -3 5 4 19 17 31 15 14 21 16 17 6 -7 -17 24 -41 57 -46 19 -3 19 -2
3 11 -26 19 -22 29 5 14 12 -6 35 -11 51 -9 23 2 28 0 23 -14 -4 -9 -3 -14 3
-10 6 3 10 13 10 22 0 10 6 13 17 9 9 -4 20 -1 25 6 5 10 8 8 8 -5 0 -10 4
-16 8 -13 10 6 12 -24 3 -39 -3 -6 1 -3 11 7 21 23 26 23 31 -4 3 -17 5 -14 6
10 0 17 6 32 12 32 7 0 9 -10 5 -25 -9 -35 3 -31 15 5 13 35 28 40 22 7 -3
-14 2 -29 11 -36 14 -11 16 -11 16 3 0 10 -4 14 -10 11 -5 -3 -10 -3 -10 2 0
18 16 28 43 29 27 0 28 -1 10 -14 -10 -7 -17 -18 -15 -24 1 -5 -1 -15 -5 -22
-4 -7 -1 -4 9 6 20 22 25 23 31 1 2 -10 3 -6 2 10 -1 16 3 26 9 24 6 -2 10
-15 8 -28 -3 -30 17 -12 23 21 6 33 15 37 15 7 0 -15 4 -27 10 -27 5 0 7 6 5
13 -6 13 33 42 43 33 3 -3 0 -6 -8 -6 -10 0 -10 -4 1 -17 12 -15 12 -16 -3
-10 -10 3 -18 2 -18 -3 0 -6 9 -10 20 -10 11 0 20 6 20 14 0 8 4 17 8 20 4 2
7 -11 7 -29 -1 -19 3 -32 8 -28 5 3 6 14 4 25 -5 18 -4 19 12 4 19 -17 52 -12
50 8 -1 6 -1 20 0 30 1 19 2 19 21 -2 24 -25 27 -40 5 -22 -29 24 -23 5 7 -25
25 -24 28 -26 19 -7 -6 12 -8 22 -3 22 6 0 12 9 15 20 6 23 37 28 37 6 0 -8 7
-16 15 -20 11 -4 15 1 15 19 0 16 -6 25 -15 25 -22 0 -85 43 -85 58 0 6 -5 12
-11 12 -6 0 -9 -6 -6 -14 6 -15 -11 -36 -27 -36 -6 0 -4 5 4 10 10 7 11 10 2
10 -7 0 -15 -6 -18 -14 -9 -23 -36 -6 -32 18 4 19 0 21 -44 21 -42 0 -47 -1
-32 -12 15 -11 16 -15 5 -26 -11 -9 -14 -9 -18 1 -3 6 -9 9 -15 6 -5 -3 -9 0
-7 7 3 26 -1 40 -11 34 -5 -3 -7 -11 -4 -18 2 -7 -3 -21 -11 -32 -16 -19 -16
-19 -6 2 14 28 14 36 -1 27 -8 -5 -9 -2 -5 9 8 21 3 22 -13 2z m-59 -38 c-10
-9 -11 -8 -5 6 3 10 9 15 12 12 3 -3 0 -11 -7 -18z m-231 -18 c0 -14 -16 -11
-29 5 -10 12 -8 13 8 9 12 -3 21 -9 21 -14z m154 -14 c-4 -8 -8 -15 -10 -15
-2 0 -4 7 -4 15 0 8 4 15 10 15 5 0 7 -7 4 -15z m176 -15 c0 -5 -2 -10 -4 -10
-3 0 -8 5 -11 10 -3 6 -1 10 4 10 6 0 11 -4 11 -10z m155 -20 c3 -5 2 -10 -4
-10 -5 0 -13 5 -16 10 -3 6 -2 10 4 10 5 0 13 -4 16 -10z"/>
<path d="M11546 4332 c-2 -4 -1 -13 3 -20 5 -8 12 -6 24 8 16 19 16 20 -3 20
-10 0 -21 -4 -24 -8z"/>
<path d="M15688 4333 c-29 -7 -21 -22 11 -20 18 1 27 7 24 15 -5 12 -7 13 -35
5z"/>
<path d="M16610 4319 c0 -5 -4 -7 -10 -4 -5 3 -10 -3 -10 -15 0 -17 3 -19 20
-10 11 6 17 16 14 25 -7 17 -14 20 -14 4z"/>
<path d="M16642 4324 c-6 -3 -9 -10 -6 -16 3 -5 -2 -16 -12 -24 -11 -9 -13
-13 -7 -9 7 3 22 1 33 -5 11 -6 20 -7 20 -1 0 5 10 7 21 4 16 -4 20 -2 17 8
-3 8 2 19 11 26 14 10 14 12 -4 12 -11 -1 -29 2 -40 5 -11 3 -26 3 -33 0z"/>
<path d="M17770 4320 c0 -5 7 -10 16 -10 8 0 12 5 9 10 -3 6 -10 10 -16 10 -5
0 -9 -4 -9 -10z"/>
<path d="M17885 4320 c-3 -5 1 -10 10 -10 9 0 13 5 10 10 -3 6 -8 10 -10 10
-2 0 -7 -4 -10 -10z"/>
<path d="M17965 4320 c-3 -5 1 -10 9 -10 24 0 19 -16 -9 -34 -14 -9 -25 -12
-25 -7 0 5 5 11 11 13 7 2 5 9 -5 18 -15 11 -17 11 -14 -1 2 -8 -2 -13 -9 -12
-7 2 -10 -4 -7 -15 4 -11 -1 -9 -16 8 -20 23 -21 24 -17 4 4 -20 3 -21 -21 -9
-29 16 -49 11 -49 -13 0 -25 19 -33 38 -16 11 10 19 12 24 5 3 -6 -1 -11 -9
-11 -9 0 -16 -7 -16 -16 0 -14 3 -14 15 -4 12 10 15 10 15 -1 1 -9 6 -7 17 6
11 14 14 15 10 3 -4 -10 1 -18 14 -21 22 -6 23 -3 8 24 -9 18 -7 19 17 15 14
-3 29 -8 33 -12 3 -3 -2 -4 -11 -2 -16 3 -18 0 -18 -22 0 -12 49 18 67 40 9
12 8 19 -3 32 -14 14 -14 17 3 28 17 11 17 11 -1 6 -10 -4 -24 -2 -31 4 -9 8
-15 8 -20 0z"/>
<path d="M16808 4312 c-22 -4 -21 -2 -3 -43 8 -19 14 -27 15 -18 0 11 9 17 25
17 21 0 23 -3 14 -14 -17 -21 -4 -28 15 -8 13 12 14 19 5 30 -8 10 -8 14 0 14
10 0 13 -7 10 -26 0 -4 5 -10 12 -15 11 -6 10 -9 -4 -15 -9 -3 -17 -11 -17
-17 0 -5 9 -2 19 7 12 11 25 15 33 10 7 -4 6 1 -3 12 -11 13 -14 25 -9 39 5
11 9 22 9 25 1 6 -96 8 -121 2z m47 -22 c-3 -5 -11 -10 -16 -10 -6 0 -7 5 -4
10 3 6 11 10 16 10 6 0 7 -4 4 -10z"/>
<path d="M18050 4310 c-9 -6 -10 -10 -3 -10 6 0 15 5 18 10 8 12 4 12 -15 0z"/>
<path d="M18117 4302 c-15 -16 -15 -19 3 -30 11 -7 20 -8 20 -3 0 5 -6 11 -12
14 -10 3 -10 7 1 20 18 23 8 22 -12 -1z"/>
<path d="M11516 4295 c-3 -8 -1 -15 4 -15 6 0 10 7 10 15 0 8 -2 15 -4 15 -2
0 -6 -7 -10 -15z"/>
<path d="M15395 4300 c-3 -5 1 -10 10 -10 9 0 13 5 10 10 -3 6 -8 10 -10 10
-2 0 -7 -4 -10 -10z"/>
<path d="M15632 4288 c8 -12 21 -24 29 -26 8 -2 7 3 -5 12 -10 8 -15 19 -11
25 3 6 -1 11 -11 11 -15 0 -15 -2 -2 -22z"/>
<path d="M16200 4293 c0 -8 5 -13 12 -11 18 6 21 25 3 25 -8 0 -15 -7 -15 -14z"/>
<path d="M17750 4300 c0 -6 7 -10 15 -10 8 0 15 2 15 4 0 2 -7 6 -15 10 -8 3
-15 1 -15 -4z"/>
<path d="M18299 4295 c42 -19 50 -19 25 0 -10 8 -28 14 -39 14 -14 0 -10 -4
14 -14z"/>
<path d="M18424 4296 c17 -14 17 -16 3 -22 -9 -3 -14 -11 -11 -16 4 -6 -2 -8
-15 -3 -15 5 -21 2 -21 -10 0 -9 -4 -14 -10 -10 -5 3 -7 12 -3 20 3 8 0 15 -7
15 -6 0 -9 -4 -6 -9 10 -15 -18 -19 -32 -4 -7 7 -19 13 -25 12 -8 0 -8 -2 1
-6 8 -3 10 -9 4 -16 -5 -7 -12 -25 -16 -41 -6 -26 -5 -28 8 -17 9 8 16 21 16
30 1 11 10 5 32 -19 17 -19 28 -28 25 -18 -9 26 1 27 50 3 46 -24 78 -23 69 1
-3 8 1 14 10 14 9 0 14 6 11 13 -3 8 3 13 14 13 23 0 23 -1 3 -21 -13 -12 -14
-19 -5 -28 8 -8 11 -8 11 2 0 8 7 10 19 6 12 -3 21 0 25 10 3 8 10 15 16 15 6
0 9 -4 5 -9 -3 -5 0 -13 7 -18 19 -11 39 -13 32 -2 -3 5 -10 7 -15 4 -5 -4 -9
1 -9 9 0 9 7 16 16 16 10 0 14 6 11 14 -4 10 -1 13 9 9 8 -3 12 -14 10 -29 -3
-13 0 -27 6 -30 7 -4 8 -2 4 4 -4 7 -1 12 6 12 9 0 9 3 -2 10 -12 8 -13 10 -1
10 8 0 22 7 31 15 14 13 17 13 17 0 0 -8 -4 -12 -8 -10 -9 6 -22 -26 -13 -34
4 -3 9 0 11 7 3 6 9 12 14 12 6 0 7 -4 4 -10 -12 -19 9 -10 35 15 23 22 26 23
26 6 0 -11 -3 -18 -6 -16 -3 1 -11 -3 -17 -11 -11 -11 -7 -12 24 -8 44 5 53
12 33 24 -9 6 -10 10 -3 10 6 0 18 -7 27 -15 18 -19 25 -19 46 0 15 13 17 13
18 0 1 -8 3 -22 4 -30 2 -16 12 -12 47 19 l24 21 -12 -22 c-11 -22 -3 -35 26
-39 10 -2 10 3 2 18 -10 18 -9 20 6 15 9 -4 19 -7 21 -7 3 0 2 -5 -2 -12 -4
-7 -3 -8 4 -4 7 4 12 3 12 -3 0 -5 -8 -15 -17 -20 -10 -6 -13 -11 -7 -11 29 0
42 44 19 63 -6 5 0 6 13 4 13 -3 30 -3 38 0 15 5 -1 25 -49 62 -15 12 -17 12
-12 -1 9 -24 -67 -29 -94 -7 -12 10 -21 21 -21 25 0 4 5 3 12 -4 20 -20 29
-14 11 7 -19 22 -43 17 -43 -9 0 -11 -4 -21 -10 -25 -5 -3 -7 -13 -4 -23 5
-14 4 -14 -4 -3 -7 10 -7 21 0 35 10 18 9 19 -4 8 -11 -8 -30 -10 -57 -6 -23
4 -56 7 -74 7 -18 1 -35 6 -39 12 -4 5 -8 -1 -8 -15 0 -18 -3 -21 -9 -11 -5 8
-14 10 -22 5 -12 -6 -12 -5 -1 8 11 14 10 16 -7 11 -12 -3 -21 -1 -21 5 0 6
-9 16 -20 22 -14 7 -20 7 -20 0 0 -5 8 -10 18 -11 11 0 7 -5 -12 -13 -27 -12
-28 -14 -10 -24 10 -6 16 -14 11 -18 -4 -4 -17 1 -29 12 -12 10 -18 13 -14 6
5 -8 1 -11 -15 -9 -13 2 -25 9 -27 15 -2 7 -10 12 -18 12 -9 0 -12 -4 -9 -10
3 -6 -1 -7 -9 -4 -9 3 -16 10 -16 15 0 4 -8 6 -17 3 -15 -5 -15 -3 1 10 11 9
28 14 38 10 10 -3 18 0 18 6 0 6 -14 10 -33 8 -18 -1 -39 2 -47 6 -8 4 -6 1 4
-8z m333 -68 c-3 -8 -6 -5 -6 6 -1 11 2 17 5 13 3 -3 4 -12 1 -19z m-347 -19
c0 -5 -4 -9 -10 -9 -5 0 -10 7 -10 16 0 8 5 12 10 9 6 -3 10 -10 10 -16z m40
6 c-10 -12 -10 -15 4 -15 9 0 16 -4 16 -9 0 -11 -33 -9 -42 3 -4 6 1 16 10 23
23 17 27 16 12 -2z m110 -5 c0 -5 -5 -10 -11 -10 -5 0 -7 5 -4 10 3 6 8 10 11
10 2 0 4 -4 4 -10z"/>
<path d="M15680 4290 c0 -5 5 -10 11 -10 5 0 7 5 4 10 -3 6 -8 10 -11 10 -2 0
-4 -4 -4 -10z"/>
<path d="M15737 4289 c7 -7 15 -10 18 -7 3 3 -2 9 -12 12 -14 6 -15 5 -6 -5z"/>
<path d="M18565 4290 c3 -5 8 -10 11 -10 2 0 4 5 4 10 0 6 -5 10 -11 10 -5 0
-7 -4 -4 -10z"/>
<path d="M15945 4280 c-3 -5 -1 -10 4 -10 6 0 11 5 11 10 0 6 -2 10 -4 10 -3
0 -8 -4 -11 -10z"/>
<path d="M18034 4275 c3 -8 1 -17 -5 -21 -16 -10 18 -41 44 -39 17 1 21 7 19
26 -5 30 -12 38 -41 44 -17 3 -21 0 -17 -10z"/>
<path d="M18202 4283 c-6 -2 -10 -8 -8 -11 2 -4 -7 -8 -21 -8 -33 -3 -40 -11
-24 -36 9 -15 9 -18 0 -13 -8 6 -10 4 -4 -4 5 -9 14 -6 33 11 14 13 22 17 18
11 -4 -7 -4 -19 1 -25 5 -9 10 -3 14 17 l6 30 11 -28 c8 -19 18 -27 30 -25 9
2 16 10 14 18 -2 7 2 16 8 20 7 5 6 11 -5 20 -12 10 -15 10 -15 -4 0 -9 -5
-16 -11 -16 -5 0 -8 4 -4 9 3 5 -4 12 -15 16 -11 4 -18 11 -15 16 7 10 6 10
-13 2z"/>
<path d="M18750 4280 c0 -5 7 -7 15 -4 8 4 15 8 15 10 0 2 -7 4 -15 4 -8 0
-15 -4 -15 -10z"/>
<path d="M18847 4283 c-13 -12 -7 -25 6 -14 8 6 18 7 22 3 5 -4 5 -1 1 6 -8
13 -19 16 -29 5z"/>
<path d="M16226 4265 c-3 -8 -1 -15 4 -15 6 0 10 7 10 15 0 8 -2 15 -4 15 -2
0 -6 -7 -10 -15z"/>
<path d="M16500 4270 c0 -11 33 -30 52 -30 7 0 2 9 -12 20 -28 22 -40 25 -40
10z"/>
<path d="M19105 4270 c4 -6 11 -8 16 -5 14 9 11 15 -7 15 -8 0 -12 -5 -9 -10z"/>
<path d="M19140 4269 c0 -5 5 -7 10 -4 6 3 10 8 10 11 0 2 -4 4 -10 4 -5 0
-10 -5 -10 -11z"/>
<path d="M17044 4259 c15 -9 16 -13 5 -20 -10 -6 -7 -8 8 -6 21 1 21 2 6 19
-9 10 -21 18 -27 18 -6 0 -3 -5 8 -11z"/>
<path d="M18109 4270 c-8 -27 -2 -64 13 -76 16 -15 17 -14 11 22 -5 34 -20 67
-24 54z"/>
<path d="M19050 4266 c0 -2 8 -10 18 -17 15 -13 16 -12 3 4 -13 16 -21 21 -21
13z"/>
<path d="M19213 4255 c6 -7 15 -11 20 -8 4 2 7 -1 7 -7 0 -6 -8 -10 -17 -8
-12 2 -17 -2 -15 -12 2 -10 -6 -6 -23 10 -17 16 -24 19 -20 8 4 -9 2 -19 -4
-23 -6 -3 -11 1 -11 10 0 9 -6 15 -12 12 -7 -2 -12 -10 -10 -16 1 -7 -2 -10
-7 -6 -6 3 -7 13 -4 22 6 15 5 16 -9 3 -12 -11 -13 -20 -6 -35 8 -14 8 -20 -1
-23 -18 -6 -43 -34 -36 -41 4 -3 12 2 19 12 13 17 32 25 21 8 -3 -5 -1 -12 5
-16 5 -3 10 1 10 10 0 9 5 13 10 10 6 -4 7 -12 3 -18 -5 -8 -2 -8 9 0 8 7 17
10 21 7 3 -3 14 -1 25 5 17 9 24 6 43 -17 19 -24 21 -25 15 -4 -7 21 -6 21 18
11 14 -7 26 -16 26 -20 0 -4 7 -9 14 -12 11 -4 13 -1 9 10 -5 12 -2 15 10 10
11 -4 17 -1 17 8 0 18 16 20 23 3 3 -8 6 -5 6 5 1 10 6 15 11 12 6 -4 18 -1
27 7 13 10 12 6 -3 -17 -14 -22 -15 -27 -3 -18 9 7 19 10 22 6 4 -3 7 -1 7 7
0 10 4 10 17 -1 11 -10 14 -10 9 -1 -5 8 0 12 16 12 18 0 20 -2 8 -10 -8 -5
-11 -10 -6 -10 5 0 3 -7 -4 -15 -11 -13 -10 -14 3 -10 18 7 31 48 17 53 -6 2
-8 8 -5 12 3 5 15 0 26 -11 14 -14 27 -18 47 -13 l27 7 -25 -21 c-21 -18 -22
-21 -7 -22 9 0 17 5 17 10 0 6 9 10 21 10 13 0 18 -4 13 -12 -4 -8 -3 -9 2 -5
5 5 9 14 10 20 0 7 2 20 2 30 1 9 7 17 13 17 7 0 9 -13 5 -37 -4 -30 -4 -33 4
-15 10 22 40 31 40 11 0 -6 7 -9 15 -6 8 4 17 2 21 -4 4 -6 14 -4 29 5 22 14
24 14 30 -3 9 -29 35 -34 57 -11 21 22 34 25 43 10 4 -6 11 -8 16 -5 5 4 9 1
9 -6 0 -7 3 -10 6 -6 4 3 21 -5 38 -18 25 -19 34 -21 46 -12 8 7 15 19 15 27
0 8 9 15 20 15 11 0 23 4 26 8 12 16 37 -4 31 -26 l-5 -21 22 21 c13 12 29 19
37 16 8 -3 14 -1 14 5 0 6 -6 12 -12 15 -8 2 -9 8 -4 13 5 5 10 4 13 -2 2 -6
10 -20 18 -30 15 -18 16 -18 35 5 11 13 20 18 20 12 0 -6 7 -11 15 -11 8 0 15
-5 15 -11 0 -5 5 -7 11 -4 6 5 4 12 -8 21 -17 13 -17 14 0 8 13 -5 16 -2 11 9
-5 13 1 14 37 6 24 -6 49 -15 56 -21 9 -7 13 -7 13 1 0 7 5 9 10 6 8 -5 8 -11
1 -19 -8 -10 -4 -16 14 -24 14 -6 25 -18 25 -27 0 -19 16 -20 24 0 3 9 0 15
-9 15 -18 0 -20 26 -3 36 7 5 8 3 3 -6 -5 -8 -3 -11 6 -8 8 3 13 11 12 17 -4
16 0 14 19 -8 16 -19 16 -21 -3 -45 -26 -33 -17 -33 15 -1 21 21 29 24 46 15
14 -7 20 -7 20 0 0 5 -4 10 -10 10 -5 0 -7 7 -3 16 6 15 7 15 19 0 7 -11 14
-13 19 -7 4 7 14 6 29 -4 19 -13 25 -13 44 1 12 8 22 11 22 5 0 -5 -5 -11 -12
-13 -7 -3 -9 -12 -4 -23 6 -17 9 -16 26 10 17 25 20 27 20 10 1 -19 2 -19 14
-3 14 20 28 14 19 -8 -4 -10 0 -12 11 -8 9 3 16 1 16 -5 0 -6 -9 -11 -20 -11
-11 0 -20 -4 -20 -10 0 -6 9 -6 23 -1 15 6 21 16 20 30 -2 16 1 20 10 14 12
-8 17 -9 37 -12 5 0 7 -8 4 -16 -8 -21 13 -19 25 3 9 15 10 15 11 1 0 -22 31
-34 42 -17 4 7 8 8 8 3 0 -6 11 -12 24 -13 16 -1 25 5 29 18 3 11 1 18 -4 15
-4 -3 -22 1 -38 10 -16 8 -37 12 -45 9 -11 -4 -16 -1 -16 10 0 9 -5 16 -11 16
-5 0 -7 -4 -4 -10 3 -5 2 -10 -4 -10 -5 0 -14 6 -18 14 -4 7 -24 16 -43 20
-19 4 -42 8 -50 9 -8 2 -24 8 -35 14 -18 9 -73 21 -145 30 -14 1 -43 5 -65 8
-22 3 -62 7 -89 10 -27 3 -51 7 -54 10 -3 3 -12 -1 -20 -8 -10 -7 -13 -8 -9
-1 4 7 -3 12 -21 12 -33 0 -65 -16 -57 -29 4 -5 1 -9 -5 -9 -7 0 -9 8 -5 20 5
15 2 20 -12 20 -14 0 -15 -2 -4 -9 9 -6 10 -11 2 -15 -6 -4 -8 -13 -5 -19 4
-7 4 -9 -1 -5 -4 4 -13 17 -19 30 -8 16 -22 22 -58 25 -30 3 -48 0 -48 -7 0
-6 11 -8 28 -5 22 5 24 4 10 -5 -10 -6 -31 -13 -48 -15 -16 -2 -34 -6 -40 -10
-5 -3 -10 -1 -10 4 0 6 5 11 10 11 6 0 10 7 10 15 0 8 -4 15 -10 15 -5 0 -10
-5 -10 -10 0 -7 -8 -6 -22 2 -13 6 -47 13 -76 15 -47 2 -52 0 -41 -13 8 -10
15 -12 23 -4 12 12 26 13 26 1 0 -15 -30 -22 -49 -11 -12 6 -22 5 -29 -2 -15
-15 -55 -18 -63 -5 -4 5 -10 0 -14 -12 -3 -11 -11 -21 -17 -21 -7 0 -7 5 1 14
9 11 7 15 -9 19 -11 3 -18 1 -14 -4 3 -5 -5 -9 -17 -9 -18 0 -19 2 -9 15 7 9
8 15 2 15 -5 0 -13 -7 -16 -17 -6 -14 -8 -14 -22 3 -9 10 -13 15 -11 9 3 -6
-30 -10 -89 -10 -52 0 -94 -3 -94 -8 0 -4 -5 -5 -11 -2 -6 4 -8 13 -5 21 3 8
1 14 -4 14 -16 0 -20 -18 -10 -44 5 -14 7 -26 4 -26 -3 0 -10 14 -15 30 -8 22
-17 30 -35 30 -16 0 -24 -6 -25 -17 -1 -18 -1 -17 -15 26 -3 11 -9 10 -28 -3
-18 -11 -26 -12 -29 -3 -3 8 -10 7 -25 -6 -17 -16 -20 -16 -18 -3 1 9 10 22
20 29 15 11 12 13 -28 14 -37 1 -43 -1 -33 -12z m772 -35 c19 -7 18 -9 -8 -19
-49 -19 -81 -9 -49 15 19 15 29 16 57 4z m-441 -49 c-8 -9 -22 12 -17 26 6 15
7 14 13 -3 4 -10 6 -21 4 -23z m614 22 c-5 -6 -16 -9 -24 -6 -22 8 -17 18 10
18 18 0 22 -3 14 -12z m-988 3 c0 -2 -8 -10 -17 -17 -16 -13 -17 -12 -4 4 13
16 21 21 21 13z m66 -34 c-4 -3 -11 0 -15 7 -5 7 -14 10 -20 7 -6 -4 -11 -3
-11 3 0 5 6 11 12 13 15 5 43 -20 34 -30z m69 -20 c-8 -9 -43 24 -42 40 1 15
5 13 23 -10 12 -15 21 -28 19 -30z m53 33 c-3 -3 -9 2 -12 12 -6 14 -5 15 5 6
7 -7 10 -15 7 -18z m332 9 c0 -2 -9 -4 -21 -4 -11 0 -18 4 -14 10 5 8 35 3 35
-6z m-355 -13 c3 -5 1 -12 -5 -16 -5 -3 -10 1 -10 9 0 18 6 21 15 7z m390 -1
c3 -5 1 -10 -4 -10 -6 0 -11 5 -11 10 0 6 2 10 4 10 3 0 8 -4 11 -10z m75 6
c0 -11 -19 -15 -25 -6 -3 5 1 10 9 10 9 0 16 -2 16 -4z m180 -70 c-6 -6 -16
-4 -27 6 -10 9 -31 23 -48 32 -23 12 -25 15 -8 13 11 -2 28 -9 37 -16 10 -8
16 -9 16 -3 0 6 -4 14 -10 17 -5 3 -10 11 -10 17 0 7 14 -4 30 -22 20 -22 27
-37 20 -44z m-121 60 c-2 -2 -14 -9 -26 -15 -18 -9 -22 -9 -18 2 3 7 15 13 26
14 12 1 20 1 18 -1z m151 -6 c0 -5 -5 -10 -11 -10 -5 0 -7 5 -4 10 3 6 8 10
11 10 2 0 4 -4 4 -10z m80 0 c0 -5 8 -7 18 -3 13 4 14 3 6 -6 -6 -6 -18 -9
-27 -5 -18 7 -23 24 -7 24 6 0 10 -4 10 -10z m95 -10 c3 -5 1 -10 -4 -10 -6 0
-11 5 -11 10 0 6 2 10 4 10 3 0 8 -4 11 -10z m395 -4 c0 -3 -4 -8 -10 -11 -5
-3 -10 -1 -10 4 0 6 5 11 10 11 6 0 10 -2 10 -4z m-170 -16 c0 -5 -5 -10 -11
-10 -5 0 -7 5 -4 10 3 6 8 10 11 10 2 0 4 -4 4 -10z m475 -50 c-3 -5 -11 -10
-16 -10 -6 0 -7 5 -4 10 3 6 11 10 16 10 6 0 7 -4 4 -10z"/>
<path d="M19639 4253 c-13 -16 -12 -17 4 -4 16 13 21 21 13 21 -2 0 -10 -8
-17 -17z"/>
<path d="M16685 4250 c-3 -5 -1 -10 4 -10 6 0 11 5 11 10 0 6 -2 10 -4 10 -3
0 -8 -4 -11 -10z"/>
<path d="M19417 4243 c3 -8 10 -10 17 -5 6 5 18 12 26 15 8 2 1 5 -17 4 -22 0
-30 -4 -26 -14z"/>
<path d="M19556 4245 c4 -8 11 -15 16 -15 6 0 5 6 -2 15 -7 8 -14 15 -16 15
-2 0 -1 -7 2 -15z"/>
<path d="M19798 4243 c7 -3 16 -2 19 1 4 3 -2 6 -13 5 -11 0 -14 -3 -6 -6z"/>
<path d="M17245 4230 c3 -5 8 -10 11 -10 2 0 4 5 4 10 0 6 -5 10 -11 10 -5 0
-7 -4 -4 -10z"/>
<path d="M17740 4229 c0 -5 5 -7 10 -4 6 3 10 8 10 11 0 2 -4 4 -10 4 -5 0
-10 -5 -10 -11z"/>
<path d="M18006 4222 c-3 -6 -1 -14 5 -17 15 -10 25 3 12 16 -7 7 -13 7 -17 1z"/>
<path d="M20768 4223 c-20 -5 -23 -18 -8 -28 6 -3 10 -1 10 4 0 6 5 11 11 11
5 0 7 -4 4 -10 -3 -6 1 -7 9 -4 9 3 16 1 16 -6 0 -7 8 -9 20 -5 14 5 20 2 20
-10 0 -9 5 -13 10 -10 6 4 22 0 35 -9 15 -10 26 -12 30 -6 10 15 25 12 25 -6
0 -9 6 -14 13 -11 6 2 20 -3 30 -11 16 -14 19 -14 35 3 15 16 16 17 0 12 -10
-3 -19 0 -22 9 -4 10 -13 13 -25 9 -12 -3 -21 0 -25 10 -3 9 -10 14 -15 11 -5
-4 -12 0 -14 6 -4 10 -8 10 -15 -1 -8 -11 -12 -10 -21 8 -8 14 -21 21 -41 21
-16 0 -32 5 -35 10 -6 10 -17 11 -47 3z"/>
<path d="M11386 4205 c-3 -8 -1 -15 4 -15 6 0 10 7 10 15 0 8 -2 15 -4 15 -2
0 -6 -7 -10 -15z"/>
<path d="M17799 4183 c-13 -16 -12 -17 4 -4 16 13 21 21 13 21 -2 0 -10 -8
-17 -17z"/>
<path d="M17960 4190 c-12 -7 -10 -9 8 -7 12 0 22 5 22 9 0 11 -12 10 -30 -2z"/>
<path d="M18080 4196 c0 -2 7 -9 15 -16 13 -11 14 -10 9 4 -5 14 -24 23 -24
12z"/>
<path d="M18170 4191 c0 -5 7 -11 14 -14 10 -4 13 -1 9 9 -6 15 -23 19 -23 5z"/>
<path d="M18007 4179 c7 -7 15 -10 18 -7 3 3 -2 9 -12 12 -14 6 -15 5 -6 -5z"/>
<path d="M18227 4183 c-3 -5 6 -9 20 -10 19 -1 22 1 12 8 -17 11 -26 11 -32 2z"/>
<path d="M18315 4180 c3 -5 11 -10 16 -10 6 0 7 5 4 10 -3 6 -11 10 -16 10 -6
0 -7 -4 -4 -10z"/>
<path d="M18887 4177 c-11 -29 -9 -43 4 -30 6 6 9 19 7 29 -3 18 -4 18 -11 1z"/>
<path d="M18590 4161 c0 -6 4 -13 10 -16 6 -3 7 1 4 9 -7 18 -14 21 -14 7z"/>
<path d="M18725 4160 c-3 -5 -1 -10 4 -10 6 0 11 5 11 10 0 6 -2 10 -4 10 -3
0 -8 -4 -11 -10z"/>
<path d="M18806 4161 c-3 -5 1 -14 8 -20 12 -10 13 -8 9 8 -6 23 -9 25 -17 12z"/>
<path d="M18842 4163 c-6 -2 -10 -9 -7 -13 7 -11 35 -2 35 11 0 10 -8 10 -28
2z"/>
<path d="M20311 4153 c-1 -7 -8 -13 -16 -13 -13 0 -14 -2 -3 -14 11 -12 14
-12 21 0 5 8 6 20 3 27 -3 9 -5 9 -5 0z"/>
<path d="M18790 4130 c6 -11 13 -20 16 -20 2 0 0 9 -6 20 -6 11 -13 20 -16 20
-2 0 0 -9 6 -20z"/>
<path d="M19174 4138 c-3 -4 4 -8 15 -8 12 0 21 4 21 8 0 5 -7 9 -15 9 -9 0
-18 -4 -21 -9z"/>
<path d="M18918 4133 c7 -3 16 -2 19 1 4 3 -2 6 -13 5 -11 0 -14 -3 -6 -6z"/>
<path d="M19755 4130 c-3 -5 -1 -10 4 -10 6 0 11 5 11 10 0 6 -2 10 -4 10 -3
0 -8 -4 -11 -10z"/>
<path d="M19841 4113 c-10 -25 -10 -26 3 -10 10 14 15 15 19 5 3 -7 6 -3 6 10
1 30 -13 28 -28 -5z"/>
<path d="M20223 4116 c14 -30 17 -31 43 -11 16 13 17 14 1 9 -10 -4 -26 1 -37
11 -19 17 -19 17 -7 -9z"/>
<path d="M19656 4113 c-6 -14 -5 -15 5 -6 7 7 10 15 7 18 -3 3 -9 -2 -12 -12z"/>
<path d="M21039 4114 c-10 -12 -9 -13 6 -8 13 5 16 4 11 -4 -4 -7 -3 -12 2
-12 6 0 12 6 15 14 8 20 -19 28 -34 10z"/>
<path d="M19150 4109 c0 -5 5 -7 10 -4 6 3 10 8 10 11 0 2 -4 4 -10 4 -5 0
-10 -5 -10 -11z"/>
<path d="M20121 4111 c-9 -6 -4 -10 18 -13 33 -5 42 6 15 16 -19 7 -16 8 -33
-3z"/>
<path d="M19738 4103 c7 -3 16 -2 19 1 4 3 -2 6 -13 5 -11 0 -14 -3 -6 -6z"/>
<path d="M19770 4100 c0 -5 5 -10 11 -10 5 0 7 5 4 10 -3 6 -8 10 -11 10 -2 0
-4 -4 -4 -10z"/>
<path d="M21084 4099 c-3 -6 -2 -15 3 -20 5 -5 9 -1 9 11 0 23 -2 24 -12 9z"/>
<path d="M20032 4086 c7 -8 15 -12 17 -11 5 6 -10 25 -20 25 -5 0 -4 -6 3 -14z"/>
<path d="M20300 4089 c0 -5 5 -7 10 -4 6 3 10 8 10 11 0 2 -4 4 -10 4 -5 0
-10 -5 -10 -11z"/>
<path d="M20335 4090 c3 -5 8 -10 11 -10 2 0 4 5 4 10 0 6 -5 10 -11 10 -5 0
-7 -4 -4 -10z"/>
<path d="M20070 4075 c0 -8 2 -15 4 -15 2 0 6 7 10 15 3 8 1 15 -4 15 -6 0
-10 -7 -10 -15z"/>
<path d="M20687 4079 c7 -7 15 -10 18 -7 3 3 -2 9 -12 12 -14 6 -15 5 -6 -5z"/>
<path d="M21132 4073 c-6 -2 -10 -9 -6 -14 8 -14 21 -11 21 6 0 8 -1 15 -1 14
-1 0 -7 -3 -14 -6z"/>
<path d="M20955 4049 c-9 -28 -2 -33 13 -9 6 11 8 21 3 25 -5 3 -13 -4 -16
-16z"/>
<path d="M21165 4050 c3 -5 1 -10 -6 -10 -7 0 -10 -2 -7 -5 8 -9 38 6 32 16
-3 5 -10 9 -15 9 -6 0 -7 -4 -4 -10z"/>
<path d="M20977 4043 c-14 -13 -6 -21 16 -17 12 2 16 1 9 -2 -23 -11 6 -31 38
-26 36 5 39 19 5 28 -14 3 -25 10 -25 15 0 10 -33 12 -43 2z"/>
<path d="M21220 4014 c0 -8 5 -12 10 -9 6 4 8 11 5 16 -9 14 -15 11 -15 -7z"/>
<path d="M21094 3978 c14 -21 16 -27 16 -43 0 -3 9 3 20 12 27 23 25 29 -11
42 -42 14 -42 15 -25 -11z"/>
<path d="M21236 3992 c-3 -4 4 -9 15 -9 23 -2 25 3 4 10 -8 4 -16 3 -19 -1z"/>
<path d="M21075 3970 c3 -5 8 -10 11 -10 2 0 4 5 4 10 0 6 -5 10 -11 10 -5 0
-7 -4 -4 -10z"/>
<path d="M21140 3942 c0 -4 14 -13 30 -20 17 -8 37 -21 45 -29 13 -13 15 -12
15 6 0 15 -6 21 -21 21 -11 0 -17 5 -14 10 3 6 3 10 -2 11 -4 0 -18 2 -30 5
-13 2 -23 1 -23 -4z"/>
<path d="M21247 3893 c-4 -3 -7 -11 -7 -17 0 -6 5 -5 12 2 6 6 9 14 7 17 -3 3
-9 2 -12 -2z"/>
<path d="M21275 3850 c3 -5 8 -10 11 -10 2 0 4 5 4 10 0 6 -5 10 -11 10 -5 0
-7 -4 -4 -10z"/>
<path d="M21300 3836 c0 -2 8 -10 18 -17 15 -13 16 -12 3 4 -13 16 -21 21 -21
13z"/>
<path d="M21370 3768 c14 -13 33 -32 43 -43 17 -20 17 -19 6 8 -7 15 -18 27
-26 27 -7 0 -16 7 -19 15 -4 8 -11 15 -17 15 -6 0 0 -10 13 -22z"/>
</g>
</svg>
