<svg width="174" height="59" viewBox="0 0 174 59" fill="none" xmlns="http://www.w3.org/2000/svg">
<path d="M130.252 11.3757H115.2V1.90619C115.2 0.860861 116.041 0 117.095 0H128.357C129.396 0 130.252 0.845488 130.252 1.90619V11.3757Z" fill="#00FF99"/>
<path d="M0 11.4066H5.14956V17.2789C5.97471 16.1567 7.42636 14.4811 9.67261 13.0515C13.6761 10.4996 17.5727 10.4381 18.4895 10.4381C27.3522 10.4381 34.4424 17.6325 34.4424 28.2857C34.4424 38.9388 27.3675 46.1332 18.4895 46.1332C14.0581 46.1332 10.8645 44.3038 9.67261 43.5198C7.47221 42.0902 6.08167 40.3992 5.28708 39.2924V59H0V11.4066ZM29.079 28.2857C29.079 20.1228 24.2044 15.219 17.2518 15.219C10.238 15.219 5.28708 20.2612 5.28708 28.2857C5.28708 36.2333 10.238 41.3523 17.2518 41.3523C24.1892 41.3677 29.079 36.387 29.079 28.2857Z" fill="#FF4853"/>
<path d="M46.4074 15.9103C46.9728 15.111 47.8743 14.0656 49.219 13.1586C51.8778 11.3601 54.613 11.2525 55.7591 11.2832H60.0835V15.9872H54.6589C49.708 15.9872 46.5449 18.6774 46.5449 24.4882V45.1643H41.2578V11.4062H46.4074V15.9103Z" fill="#FF4853"/>
<path d="M79.7951 10.4383C89.9719 10.4383 96.9857 17.771 96.9857 28.2858C96.9857 38.7237 89.9719 46.1333 79.7951 46.1333C69.6946 46.1333 62.6808 38.7391 62.6808 28.2858C62.6655 17.771 69.6793 10.4383 79.7951 10.4383ZM79.7951 41.3678C87.0075 41.3678 91.6834 35.972 91.6834 28.3011C91.6834 20.5534 87.0075 15.2345 79.7951 15.2345C72.5826 15.2345 67.9068 20.7686 67.9068 28.3011C67.8915 36.1719 72.5673 41.3678 79.7951 41.3678Z" fill="#FF4853"/>
<path d="M121.511 45.3031C120.136 46.3484 118.226 46.3484 116.851 45.3031L105.452 35.0188C103.801 33.7737 102.823 31.806 102.823 29.7307V11.4066H108.202V29.7307C108.202 30.4993 108.569 31.2372 109.18 31.683L119.204 41.0141L129.335 31.683C129.946 31.2218 130.313 30.4839 130.313 29.7307V11.4066H135.57V29.7307C135.57 31.806 134.576 33.7737 132.941 35.0188L121.511 45.3031Z" fill="#FF4853"/>
<path d="M168.85 45.1647V39.8765C168.85 41.5214 165.886 46.1793 157.39 46.1793C147.014 46.1793 142.445 41.0756 142.445 29.6999V11.4066H147.794V29.6999C147.794 38.8773 151.476 41.3984 157.451 41.3984C164.083 41.3984 168.713 37.3401 168.713 29.6999V11.4066H174V45.1647H168.85Z" fill="#FF4853"/>
</svg>
